<?xml version="1.0" encoding="UTF-8" standalone="no"?>
<svg width="259px" height="477px" viewBox="0 0 259 477" version="1.1" xmlns="http://www.w3.org/2000/svg" xmlns:xlink="http://www.w3.org/1999/xlink">
    <!-- Generator: Sketch 3.6.1 (26313) - http://www.bohemiancoding.com/sketch -->
    <title>Artboard 1</title>
    <desc>Created with Sketch.</desc>
    <defs></defs>
    <g id="Page-1" stroke="none" stroke-width="1" fill="none" fill-rule="evenodd">
        <g id="Artboard-1">
            <g id="Group-3" transform="translate(5.000000, 4.000000)">
                <g id="Document" transform="translate(124.500000, 234.890015) scale(1, -1) translate(-124.500000, -234.890015) translate(0.000000, 0.890015)">
                    <g id="Spread" transform="translate(0.000000, 0.125000)">
                        <g id="Layer-1">
                            <path d="M0.080275475,449.493221 L0.080275475,17.5332609 C0.080275475,8.29357987 7.58027718,0.793578162 16.8199582,0.793578162 L232.130787,0.793578162 C241.370468,0.793578162 248.87047,8.29357987 248.87047,17.5332609 L248.87047,449.493221 C248.87047,458.732902 241.370468,466.232904 232.130787,466.232904 L16.8199582,466.232904 C7.58027718,466.232904 0.080275475,458.732902 0.080275475,449.493221 L0.080275475,449.493221 Z" id="Shape" stroke="#000000" stroke-width="3" fill="#FFFFFF"></path>
                            <path d="M16.9633068,38.6536785 L231.987438,38.6536785 L231.987438,419.932435 L16.9633068,419.932435 L16.9633068,38.6536785 Z" id="Shape" stroke="#000000" stroke-width="3" fill="#FFFFFF"></path>
                            <rect id="Rectangle-1" fill="#F6F6F6" x="18.5" y="237.5" width="212" height="181.015015"></rect>
                            <g id="Group" transform="translate(16.201839, 37.844045)">
                                <path d="M0.761468063,28.807346 L0.761468063,0.810780001 L215.7856,0.810780001 L215.7856,28.807346 L0.761468063,28.807346 L0.761468063,28.807346 Z" id="Shape" stroke="#000000" stroke-width="0.75"></path>
                                <g id="Group_1" transform="translate(41.284413, 8.027525)" stroke="#333333">
                                    <path d="M64.4117119,12.9931222 C67.839465,13.9782142 71.4231814,11.993122 72.4071266,8.56651571 C73.3922185,5.13876264 71.4071263,1.55504623 67.98052,0.571101047 C64.552767,-0.41399092 60.9690506,1.57110127 59.9851054,4.99770756 C59.0000134,8.42546063 60.9851056,12.009177 64.4117119,12.9931222 L64.4117119,12.9931222 Z" id="Shape" stroke-width="0.729"></path>
                                    <path d="M120.519523,12.1617 L120.519523,1.40367004 C120.519523,0.832568997 120.981679,0.370412928 121.55278,0.370412928 L132.31081,0.370412928 C132.881911,0.370412928 133.344067,0.832568997 133.344067,1.40367004 L133.344067,12.1617 C133.344067,12.7328011 132.881911,13.1949571 132.31081,13.1949571 L121.55278,13.1949571 C120.981679,13.1949571 120.519523,12.7328011 120.519523,12.1617 L120.519523,12.1617 Z" id="Shape" stroke-width="0.816"></path>
                                    <path d="M10.5905987,0.56766068 L1.22935808,5.97133163 C0.455275333,6.41857944 0.455275333,7.14564383 1.22935808,7.59289163 L10.5894519,12.9977094 C11.3646815,13.4438104 11.993122,13.081425 11.993122,12.1869294 L11.9942688,1.37844068 C11.9942688,0.483945064 11.3658283,0.121559661 10.5905987,0.56766068 L10.5905987,0.56766068 Z" id="Shape" stroke-width="0.828"></path>
                                </g>
                            </g>
                            <g id="Group_2" transform="translate(90.743140, 436.926705)" stroke="#000000" stroke-width="0.75">
                                <path d="M73.4598791,11.1915163 C75.8990998,13.3451865 79.6296053,13.1112415 81.7832755,10.670874 C83.9369457,8.23165325 83.7030007,4.50114781 81.2626332,2.3474776 C78.8234124,0.193807384 75.092907,0.427752391 72.9392368,2.86811992 C70.7855666,5.30734066 71.0195116,9.03784609 73.4598791,11.1915163 L73.4598791,11.1915163 Z" id="Shape"></path>
                                <path d="M0.764908431,6.88876303 L0.764908431,6.45642349 C0.764908431,4.08371652 2.69151437,2.15711058 5.06422134,2.15711058 L60.542445,2.15711058 C62.9151519,2.15711058 64.8417579,4.08371652 64.8417579,6.45642349 L64.8417579,6.88876303 C64.8417579,9.26147 62.9151519,11.1880759 60.542445,11.1880759 L5.06422134,11.1880759 C2.69151437,11.1880759 0.764908431,9.26147 0.764908431,6.88876303 L0.764908431,6.88876303 Z" id="Shape"></path>
                            </g>
                            <g id="Group-2" transform="translate(177.000000, 217.000000)">
                                <circle id="Oval-1" fill="#E0E0E0" cx="20.5" cy="20.5" r="20.5"></circle>
                                <path d="M16,29 L16,13 L28,21 L16,29 Z" id="Triangle-1" fill="#FFFFFF"></path>
                            </g>
                        </g>
                    </g>
                </g>
            </g>
        </g>
    </g>
</svg>