<?xml version="1.0" encoding="UTF-8" standalone="no"?>
<svg width="284px" height="379px" viewBox="0 0 284 379" version="1.1" xmlns="http://www.w3.org/2000/svg" xmlns:xlink="http://www.w3.org/1999/xlink">
    <!-- Generator: Sketch 3.7.1 (28215) - http://www.bohemiancoding.com/sketch -->
    <title>PLAY_Black_V</title>
    <desc>Created with Sketch.</desc>
    <defs>
        <polygon id="path-1" points="0.332 69.94 207.453 69.94 207.453 0.459 0.332 0.459"></polygon>
        <polygon id="path-3" points="141.7625 0.919 0.06 0.919 0.06 284.383 283.465 284.383 283.465 0.919"></polygon>
    </defs>
    <g id="Page-1" stroke="none" stroke-width="1" fill="none" fill-rule="evenodd">
        <g id="PLAY_Black_V">
            <g id="Group-3" transform="translate(40.000000, 309.000000)">
                <mask id="mask-2" fill="white">
                    <use xlink:href="#path-1"></use>
                </mask>
                <g id="Clip-2"></g>
                <path d="M34.029,28.342 C34.029,18.965 26.488,12.26 17.129,12.26 L10.299,12.26 L10.294,12.256 L10.294,44.541 C10.297,44.541 10.298,44.539 10.299,44.539 C12.037,44.539 17.129,44.535 17.129,44.535 C26.488,44.535 34.029,37.637 34.029,28.342 L34.029,28.342 Z M43.509,28.342 C43.509,43.207 31.471,53.762 17.555,53.762 L10.299,53.762 L10.294,53.762 L10.294,70 L0.332,70 L0.332,3.119 L17.129,3.117 C31.824,3.117 43.509,13.75 43.509,28.342 L43.509,28.342 Z M126.076,22.02 L115.39,45.34 L136.717,45.34 C136.736,45.344 136.756,45.354 136.773,45.359 L126.076,22.02 L126.076,22.02 Z M126.076,0.459 L159.146,70 L148.068,70 L141.121,54.846 L111.033,54.846 L104.087,70 L93.01,70 L126.076,0.459 L126.076,0.459 Z M65.86,3.117 L55.896,3.117 C55.896,3.119 55.898,3.119 55.898,3.121 L55.898,70 L85.285,70 L89.805,60.496 L65.86,60.496 L65.86,3.117 L65.86,3.117 Z M207.453,3.117 L183.844,48.793 L183.844,70 L174.441,70 L174.441,48.793 L150.545,3.117 L161.641,3.117 L179.143,37.732 L196.834,3.117 L207.453,3.117 L207.453,3.117 Z" id="Fill-1" fill="#1A1918" mask="url(#mask-2)"></path>
            </g>
            <path d="M89.867,165.843 C89.867,165.843 85.383,165.816 84.428,165.816 L84.428,212.578 L89.912,212.578 C102.799,212.578 113.289,202.092 113.289,189.209 C113.289,182.965 110.859,177.098 106.447,172.678 C102.029,168.267 96.111,165.843 89.867,165.843" id="Fill-4" fill="#1A1918"></path>
            <path d="M184.617,113.59 C187.283,110.956 189.701,108.513 190.269,107.928 L177.794,95.567 L172.22,101.147 C170.603,102.763 169.633,105.122 169.633,107.447 C169.633,109.745 170.531,111.849 172.22,113.548 C176.089,117.41 181.414,116.752 184.617,113.59" id="Fill-5" fill="#1A1918"></path>
            <path d="M124.445,114.017 C124.445,103.286 120.279,93.19 112.688,85.592 C105.137,78.05 95.098,73.876 84.428,73.828 L84.428,154.204 C95.098,154.155 105.137,149.984 112.688,142.437 C120.279,134.846 124.445,124.751 124.445,114.017" id="Fill-6" fill="#1A1918"></path>
            <g id="Group-10">
                <mask id="mask-4" fill="white">
                    <use xlink:href="#path-3"></use>
                </mask>
                <g id="Clip-8"></g>
                <path d="M180.816,145.602 C171.88,145.602 163.471,149.083 157.15,155.408 C150.832,161.721 147.346,170.126 147.346,179.07 C147.346,188.005 150.832,196.404 157.15,202.727 C163.471,209.045 171.88,212.531 180.816,212.531 C199.267,212.531 214.275,197.522 214.275,179.07 C214.275,170.126 210.789,161.721 204.478,155.408 C198.156,149.083 189.751,145.602 180.816,145.602" id="Fill-7" fill="#1A1918" mask="url(#mask-4)"></path>
                <path d="M212.664,210.922 C204.158,219.432 192.845,224.119 180.816,224.119 C168.781,224.119 157.469,219.432 148.959,210.922 C140.451,202.414 135.766,191.106 135.766,179.07 C135.766,167.037 140.451,155.726 148.959,147.212 C157.469,138.702 168.781,134.016 180.816,134.016 C192.845,134.016 204.158,138.702 212.664,147.212 C221.173,155.726 225.865,167.037 225.865,179.07 C225.865,191.106 221.173,202.414 212.664,210.922 L212.664,210.922 Z M114.645,213.928 C108.047,220.529 99.268,224.164 89.93,224.164 L72.807,224.162 L72.785,62.24 L84.266,62.237 C98.096,62.237 111.098,67.621 120.883,77.407 C130.662,87.182 136.033,100.19 136.033,114.017 C136.033,133.189 125.543,150.667 108.641,159.701 C113.467,162.77 117.533,167.01 120.352,171.986 C123.32,177.211 124.891,183.162 124.891,189.209 C124.891,198.541 121.248,207.322 114.645,213.928 L114.645,213.928 Z M164.781,75.868 C164.781,71.891 166.389,67.905 169.188,64.93 C172.179,61.74 176.259,59.987 180.664,59.987 C186.441,59.987 190.167,62.898 191.867,64.633 L192.039,64.831 L191.935,64.962 L189.339,67.545 L185.593,71.284 L185.458,71.417 L185.326,71.276 C184.781,70.704 183.218,69.366 180.681,69.366 C179.025,69.366 177.203,70.133 175.966,71.369 C175.125,72.219 174.123,73.69 174.123,75.904 C174.123,77.985 174.876,79.301 176.107,80.554 C178.39,82.86 196.847,101.358 196.847,101.358 L203.156,95.029 L209.753,101.63 L203.447,107.948 L212.316,116.829 L212.232,116.982 L205.906,123.326 L196.9,114.552 C195.447,115.967 193.943,117.472 191.279,120.135 C188.3,123.108 183.923,125.094 179.568,125.453 C175.919,125.75 170.541,125.079 165.641,120.182 C162.15,116.69 160.297,112.364 160.297,107.67 C160.297,102.82 162.334,97.775 165.6,94.509 L171.21,89.02 C168.545,86.543 164.781,82.477 164.781,75.868 L164.781,75.868 Z M141.732,0.919 C63.456,0.919 0,64.375 0,142.651 C0,220.928 63.456,284.383 141.732,284.383 C220.009,284.383 283.465,220.928 283.465,142.651 C283.465,64.375 220.009,0.919 141.732,0.919 L141.732,0.919 Z" id="Fill-9" fill="#1A1918" mask="url(#mask-4)"></path>
            </g>
        </g>
    </g>
</svg>