<?xml version="1.0" encoding="UTF-8" standalone="no"?>
<svg width="100px" height="100px" viewBox="0 0 100 100" version="1.1" xmlns="http://www.w3.org/2000/svg" xmlns:xlink="http://www.w3.org/1999/xlink">
    <!-- Generator: Sketch 3.6.1 (26313) - http://www.bohemiancoding.com/sketch -->
    <title>content</title>
    <desc>Created with Sketch.</desc>
    <defs></defs>
    <g id="Page-1" stroke="none" stroke-width="1" fill="none" fill-rule="evenodd">
        <g id="content" stroke-width="1.3" stroke="#000000">
            <g id="noun_298135_cc" transform="translate(3.000000, 22.000000)">
                <g id="Group">
                    <path d="M92.767146,12.2938694 C92.767146,12.2938694 91.8447454,6.71035096 89.0482611,4.25410928 C85.4904302,1.0255442 81.4933609,1.01288316 79.663201,0.82296757 C66.5446147,0 46.8813765,0 46.8813765,0 L46.8374527,0 C46.8374527,0 27.1742145,0 14.0556282,0.82296757 C12.2254683,1.01288316 8.228399,1.0255442 4.67056812,4.25410928 C1.85944248,6.71035096 0.951683159,12.2938694 0.951683159,12.2938694 C0.951683159,12.2938694 0,18.8522879 0,25.4107064 L0,31.5639716 C0,38.12239 0.937041879,44.6808085 0.937041879,44.6808085 C0.937041879,44.6808085 1.8448012,50.264327 4.65592684,52.7205686 C8.21375772,55.9491337 12.8989671,55.8478454 14.9926701,56.1896935 C22.4890051,56.7974234 46.852094,57 46.852094,57 C46.852094,57 66.5446147,56.9746779 79.6485597,56.1517104 C81.4787197,55.9617948 85.4757889,55.9491337 89.0336198,52.7205686 C91.8447454,50.264327 92.7525048,44.6808085 92.7525048,44.6808085 C92.7525048,44.6808085 93.7041879,38.12239 93.7041879,31.5639716 L93.7041879,25.4107064 C93.7041879,18.8522879 92.767146,12.2938694 92.767146,12.2938694 L92.767146,12.2938694 Z M37.1742083,41.2453749 L37.1742083,14.9203546 L62.4889803,28.1267886 L37.1742083,41.2453749 L37.1742083,41.2453749 Z" id="Shape"></path>
                </g>
            </g>
        </g>
    </g>
</svg>