<?xml version="1.0" encoding="UTF-8" standalone="no"?>
<svg width="100px" height="100px" viewBox="0 0 100 100" version="1.1" xmlns="http://www.w3.org/2000/svg" xmlns:xlink="http://www.w3.org/1999/xlink">
    <!-- Generator: Sketch 3.6.1 (26313) - http://www.bohemiancoding.com/sketch -->
    <title>Design</title>
    <desc>Created with Sketch.</desc>
    <defs></defs>
    <g id="Page-1" stroke="none" stroke-width="1" fill="none" fill-rule="evenodd">
        <g id="Design">
            <g id="Group-2" transform="translate(13.000000, 22.000000)">
                <g id="noun_83470_cc" transform="translate(0.000000, 1.838710)" stroke="#000000">
                    <g id="Group">
                        <g transform="translate(36.774194, 0.000000)" id="Shape">
                            <path d="M9.1016129,54.9774194 C2.2983871,54.9774194 1.01129032,51.7596774 0.919354839,51.3919355 L0.827419355,51.0241935 L1.01129032,50.6564516 C1.10322581,50.5645161 3.12580645,47.2548387 9.1016129,47.2548387 C14.8935484,47.2548387 18.7548387,50.1967742 18.9387097,50.3806452 L19.95,51.116129 L18.9387097,51.8516129 C18.7548387,52.0354839 14.433871,54.9774194 9.1016129,54.9774194 L9.1016129,54.9774194 Z"></path>
                            <path d="M20.2258065,49.5532258 L20.2258065,49.5532258 C15.7209677,49.5532258 14.433871,47.3467742 14.3419355,47.1629032 L14.1580645,46.7951613 L14.3419355,46.4274194 C14.433871,46.2435484 15.9048387,42.75 21.7887097,41.8306452 C22.7080645,41.6467742 23.5354839,41.6467742 24.4548387,41.6467742 C28.7758065,41.6467742 31.8096774,43.3016129 31.9935484,43.3935484 L33.0967742,44.0370968 L32.1774194,44.8645161 C31.9935484,45.0483871 28.2241935,48.633871 22.983871,49.4612903 C22.0645161,49.4612903 21.1451613,49.5532258 20.2258065,49.5532258 L20.2258065,49.5532258 Z"></path>
                            <path d="M24.4548387,41.6467742 L24.4548387,41.6467742 C23.5354839,41.6467742 23.0758065,41.3709677 22.983871,41.3709677 L22.616129,41.1870968 L22.5241935,40.7274194 C22.5241935,40.5435484 21.6048387,36.866129 25.7419355,32.6370968 C29.7870968,28.5 34.6596774,27.8564516 34.8435484,27.7645161 L36.0387097,27.5806452 L35.8548387,28.8677419 C35.8548387,29.0516129 34.9354839,34.2919355 31.2580645,37.9693548 C28.2241935,41.0032258 25.9258065,41.6467742 24.4548387,41.6467742 L24.4548387,41.6467742 Z"></path>
                            <path d="M27.8564516,29.3274194 L27.5806452,29.0516129 C27.4887097,28.9596774 25.0064516,26.0177419 26.8451613,20.3177419 C28.5919355,14.8016129 32.6370968,12.0435484 32.7290323,11.8596774 L33.7403226,11.1241935 L34.1080645,12.3193548 C34.2,12.5032258 35.6709677,17.5596774 34.1080645,22.5241935 C32.0854839,28.9596774 28.683871,29.2354839 28.2241935,29.2354839 L27.8564516,29.3274194 L27.8564516,29.3274194 Z"></path>
                            <path d="M26.3854839,18.9387097 L26.0177419,18.7548387 C25.833871,18.6629032 22.3403226,17.1919355 21.4209677,11.3080645 C20.5016129,5.60806452 22.8,1.28709677 22.8919355,1.10322581 L23.5354839,-3.55271368e-15 L24.3629032,0.919354839 C24.5467742,1.10322581 28.1322581,4.87258065 28.9596774,10.0209677 C30.0629032,16.7322581 27.1209677,18.4790323 26.7532258,18.6629032 L26.3854839,18.9387097 L26.3854839,18.9387097 Z"></path>
                            <path d="M20.2258065,36.3145161 L19.8580645,36.0387097 C19.766129,35.9467742 16.8241935,33.4645161 17.7435484,27.5806452 C18.5709677,21.8806452 22.0645161,18.4790323 22.2483871,18.2951613 L23.1677419,17.4677419 L23.7193548,18.5709677 C23.8112903,18.7548387 26.1096774,23.4435484 25.3741935,28.683871 C24.3629032,35.3951613 21.0532258,36.2225806 20.6854839,36.2225806 L20.2258065,36.3145161 L20.2258065,36.3145161 Z"></path>
                            <path d="M6.98709677,47.6225806 L6.98709677,47.6225806 C4.96451613,47.6225806 3.95322581,46.7951613 3.86129032,46.7032258 L3.58548387,46.4274194 L3.58548387,45.9677419 C3.58548387,45.783871 3.86129032,42.0145161 9.1016129,39.1645161 C12.2274194,37.4177419 15.3532258,37.05 17.3758065,37.05 C18.4790323,37.05 19.1225806,37.1419355 19.2145161,37.1419355 L20.4096774,37.3258065 L19.8580645,38.4290323 C19.766129,38.6129032 17.3758065,43.3016129 12.7790323,45.8758065 C10.6645161,47.0709677 8.64193548,47.6225806 6.98709677,47.6225806 L6.98709677,47.6225806 Z"></path>
                        </g>
                        <g id="Shape">
                            <path d="M27.5806452,54.9774194 C22.3403226,54.9774194 18.0193548,52.0354839 17.8354839,51.8516129 L16.8241935,51.116129 L17.8354839,50.3806452 C18.0193548,50.2887097 21.8806452,47.2548387 27.6725806,47.2548387 C33.6483871,47.2548387 35.6709677,50.4725806 35.7629032,50.6564516 L35.9467742,51.0241935 L35.7629032,51.483871 C35.6709677,51.8516129 34.383871,54.9774194 27.5806452,54.9774194 L27.5806452,54.9774194 Z"></path>
                            <path d="M16.4564516,49.5532258 C15.6290323,49.5532258 14.7096774,49.4612903 13.6983871,49.2774194 C8.55,48.45 4.68870968,44.7725806 4.50483871,44.6806452 L3.58548387,43.8532258 L4.68870968,43.2096774 C4.78064516,43.1177419 7.81451613,41.4629032 12.2274194,41.4629032 C13.1467742,41.4629032 14.066129,41.5548387 14.8935484,41.6467742 C20.7774194,42.566129 22.2483871,46.1516129 22.3403226,46.2435484 L22.5241935,46.6112903 L22.3403226,46.9790323 C22.2483871,47.3467742 20.9612903,49.5532258 16.4564516,49.5532258 L16.4564516,49.5532258 Z"></path>
                            <path d="M12.3193548,41.6467742 C10.8483871,41.6467742 8.55,41.0032258 5.60806452,37.9693548 C1.93064516,34.2 1.01129032,29.0516129 1.01129032,28.8677419 L0.735483871,27.5806452 L1.93064516,27.7645161 C2.11451613,27.7645161 6.98709677,28.5 11.0322581,32.6370968 C15.1693548,36.866129 14.3419355,40.6354839 14.25,40.7274194 L14.1580645,41.1870968 L13.7903226,41.3709677 C13.6983871,41.3709677 13.1467742,41.6467742 12.3193548,41.6467742 L12.3193548,41.6467742 Z"></path>
                            <path d="M8.82580645,29.3274194 L8.36612903,29.3274194 C7.9983871,29.3274194 4.59677419,29.0516129 2.48225806,22.616129 C0.919354839,17.5596774 2.39032258,12.5951613 2.48225806,12.4112903 L2.85,11.216129 L3.86129032,11.9516129 C4.04516129,12.0435484 8.09032258,14.8935484 9.74516129,20.4096774 C11.583871,26.1096774 9.1016129,29.0516129 9.00967742,29.1435484 L8.82580645,29.3274194 L8.82580645,29.3274194 Z"></path>
                            <path d="M10.3887097,18.9387097 L10.0209677,18.7548387 C9.65322581,18.5709677 6.71129032,16.8241935 7.81451613,10.1129032 C8.64193548,4.96451613 12.3193548,1.10322581 12.4112903,1.01129032 L13.2387097,0.0919354839 L13.8822581,1.19516129 C13.9741935,1.37903226 16.2725806,5.7 15.3532258,11.4 C14.3419355,17.283871 10.8483871,18.7548387 10.7564516,18.8467742 L10.3887097,18.9387097 L10.3887097,18.9387097 Z"></path>
                            <path d="M16.5483871,36.3145161 L16.0887097,36.2225806 C15.7209677,36.1306452 12.4112903,35.3951613 11.4,28.683871 C10.6645161,23.4435484 12.9629032,18.7548387 13.0548387,18.5709677 L13.6064516,17.4677419 L14.5258065,18.2951613 C14.7096774,18.4790323 18.2032258,21.8806452 19.0306452,27.5806452 C19.8580645,33.4645161 17.0080645,35.9467742 16.916129,36.0387097 L16.5483871,36.3145161 L16.5483871,36.3145161 Z"></path>
                            <path d="M29.7870968,47.6225806 C28.1322581,47.6225806 26.1096774,47.0709677 23.9951613,45.8758065 C19.3983871,43.3935484 17.0080645,38.7048387 16.916129,38.4290323 L16.3645161,37.3258065 L17.5596774,37.1419355 C17.5596774,37.1419355 18.2951613,37.05 19.3983871,37.05 C21.4209677,37.05 24.5467742,37.4177419 27.6725806,39.1645161 C32.9129032,42.0145161 33.0967742,45.8758065 33.1887097,45.9677419 L33.1887097,46.4274194 L32.9129032,46.7032258 C32.7290323,46.7951613 31.8096774,47.6225806 29.7870968,47.6225806 L29.7870968,47.6225806 Z"></path>
                        </g>
                    </g>
                </g>
                <text id="1" font-family="Apercu-Regular, Apercu" font-size="29" font-weight="normal" fill="#000000">
                    <tspan x="31.2580645" y="28">1</tspan>
                </text>
            </g>
        </g>
    </g>
</svg>