<?xml version="1.0" encoding="UTF-8" standalone="no"?>
<svg width="100px" height="100px" viewBox="0 0 100 100" version="1.1" xmlns="http://www.w3.org/2000/svg" xmlns:xlink="http://www.w3.org/1999/xlink">
    <!-- Generator: Sketch 3.6.1 (26313) - http://www.bohemiancoding.com/sketch -->
    <title>Distribution</title>
    <desc>Created with Sketch.</desc>
    <defs></defs>
    <g id="Page-1" stroke="none" stroke-width="1" fill="none" fill-rule="evenodd">
        <g id="Distribution" stroke-width="0.2" stroke="#000000" fill="#000000">
            <g id="noun_342630_cc" transform="translate(22.000000, 22.000000)">
                <g id="Group">
                    <g id="Shape">
                        <path d="M35.0098453,7.81962721 C34.7729391,7.74593279 34.5253453,7.8782276 34.4514234,8.11085337 C34.3783922,8.3452549 34.5102047,8.5938626 34.7435484,8.66666913 C41.3003297,10.707028 46.4356734,15.8265707 48.4814391,22.3622893 C48.5420016,22.5522966 48.7174547,22.6739368 48.9071578,22.6739368 C48.9507984,22.6739368 48.9953297,22.6677216 49.0398609,22.6535155 C49.2740953,22.5807089 49.4050172,22.3321012 49.3319859,22.0976997 C47.1989391,15.2840732 41.8445016,9.94611087 35.0098453,7.81962721 M34.2136266,10.3634166 C33.9749391,10.2879464 33.7291266,10.4211291 33.6552047,10.6546428 C33.5821734,10.8890443 33.7130953,11.137652 33.9473297,11.2104586 C39.6660328,12.9906672 44.1449859,17.4558389 45.9306891,23.1569461 C45.9903609,23.3469534 46.1667047,23.4685936 46.3564078,23.4685936 C46.3991578,23.4685936 46.4445797,23.4623784 46.4891109,23.4481722 C46.7242359,23.3753657 46.8542672,23.126758 46.7812359,22.8923564 C44.9091422,16.9133414 40.2102047,12.2297501 34.2136266,10.3634166 M51.8836266,21.303043 C49.4878453,13.6556928 43.4787984,7.6642474 35.8078453,5.27672567 C35.5691578,5.20125548 35.3233453,5.33443817 35.2494234,5.56795183 C35.1763922,5.80235337 35.3064234,6.05096106 35.5415484,6.1237676 C42.9346266,8.42516452 48.7254703,14.1981903 51.0330797,21.5676326 C51.0927516,21.7576399 51.2682047,21.8792801 51.4579078,21.8792801 C51.5015484,21.8792801 51.5469703,21.8730649 51.5915016,21.8588588 C51.8257359,21.7860522 51.9566578,21.5374445 51.8836266,21.303043 M28.5002672,29.475133 C28.0086422,29.475133 27.6096422,29.0773607 27.6096422,28.5872484 C27.6096422,28.0980239 28.0086422,27.6993637 28.5002672,27.6993637 C28.9910016,27.6993637 29.3908922,28.0980239 29.3908922,28.5872484 C29.3908922,29.0773607 28.9910016,29.475133 28.5002672,29.475133 M28.5002672,26.8114791 C27.5161266,26.8114791 26.7190172,27.6070238 26.7190172,28.5872484 C26.7190172,29.5683609 27.5161266,30.3630176 28.5002672,30.3630176 C29.4835172,30.3630176 30.2815172,29.5683609 30.2815172,28.5872484 C30.2815172,27.6070238 29.4835172,26.8114791 28.5002672,26.8114791 M28.5,37.3777165 C23.6393299,37.3777165 19.685567,33.4361191 19.685567,28.5904049 C19.685567,23.7456671 23.6393299,19.8030932 28.5,19.8030932 C33.3596907,19.8030932 37.314433,23.7456671 37.314433,28.5904049 C37.314433,33.4361191 33.3596907,37.3777165 28.5,37.3777165 M28.5002672,18.8205176 C23.0897203,18.8205176 18.7033922,23.1933493 18.7033922,28.5872484 C18.7033922,33.9820353 23.0897203,38.3539791 28.5002672,38.3539791 C33.9108141,38.3539791 38.2971422,33.9820353 38.2971422,28.5872484 C38.2971422,23.1933493 33.9108141,18.8205176 28.5002672,18.8205176 M28.4823719,56.0309743 C13.2632198,56.0309743 0.881443299,43.6882128 0.881443299,28.5149717 C0.881443299,13.3426479 13.2632198,0.9989691 28.4823719,0.9989691 C43.7015239,0.9989691 56.0833004,13.3426479 56.0833004,28.5149717 C56.0833004,43.6882128 43.7015239,56.0309743 28.4823719,56.0309743 M0.0002671875,28.5872484 C0.0002671875,44.2797211 12.7602516,56.9995561 28.5002672,56.9995561 C44.2402828,56.9995561 57.0002672,44.2797211 57.0002672,28.5872484 C57.0002672,12.8956636 44.2402828,0.174940673 28.5002672,0.174940673 C12.7602516,0.174940673 0.0002671875,12.8956636 0.0002671875,28.5872484 Z"></path>
                    </g>
                </g>
            </g>
        </g>
    </g>
</svg>