<?xml version="1.0" encoding="UTF-8" standalone="no"?>
<svg width="287px" height="596px" viewBox="0 0 287 596" version="1.1" xmlns="http://www.w3.org/2000/svg" xmlns:xlink="http://www.w3.org/1999/xlink">
    <!-- Generator: Sketch 3.6.1 (26313) - http://www.bohemiancoding.com/sketch -->
    <title>iphone</title>
    <desc>Created with Sketch.</desc>
    <defs></defs>
    <g id="Page-1" stroke="none" stroke-width="1" fill="none" fill-rule="evenodd">
        <g id="iphone" transform="translate(3.000000, 2.000000)">
            <g id="Page-1">
                <g id="DOWNLOAD-OVERLAY">
                    <g id="Overlay">
                        <g id="iphone">
                            <path d="M281,557.20224 C281,576.28152 265.456377,591.74496 246.281369,591.74496 L34.7207923,591.74496 C15.5457846,591.74496 0.00216153846,576.28152 0.00216153846,557.20224 L0.00216153846,34.71768 C0.00216153846,15.6384 15.5457846,0.17496 34.7207923,0.17496 L246.281369,0.17496 C265.456377,0.17496 281,15.6384 281,34.71768 L281,557.20224 L281,557.20224 L281,557.20224 L281,557.20224 L281,557.20224 Z" id="bezel" stroke="#000000" stroke-width="4.31999963" fill="#FDFDFD"></path>
                            <rect id="screen" stroke="#000000" stroke-width="4.31999963" fill="#FFFFFF" x="19.4538462" y="77.76" width="241.941" height="430.02144"></rect>
                            <path d="M166.438462,55.61136 C166.438462,56.98296 165.489546,58.08888 164.320154,58.08888 L120.868908,58.08888 C119.697354,58.08888 118.7506,56.9808 118.7506,55.61136 L118.7506,50.03856 C118.7506,48.66696 119.699515,47.56104 120.868908,47.56104 L164.320154,47.56104 C165.489546,47.56104 166.438462,48.66912 166.438462,50.03856 L166.438462,55.61136 L166.438462,55.61136 L166.438462,55.61136 L166.438462,55.61136 L166.438462,55.61136 Z" id="speaker" stroke="#000000" stroke-width="4.31999963"></path>
                            <ellipse id="camera" stroke="#000000" stroke-width="4.31999963" cx="142.661538" cy="25.92" rx="6.48461538" ry="6.48"></ellipse>
                            <ellipse id="lock" stroke="#000000" stroke-width="4.31999963" cx="140.586462" cy="548.64216" rx="21.7018462" ry="21.60216"></ellipse>
                            <g id="np-phone-screen" transform="translate(36.000000, 123.000000)" fill="#E0E0E0">
                                <g id="Layer_1" transform="translate(0.000000, 0.000000)">
                                    <g id="Group">
                                        <path d="M106.94901,5.04676244 C108.149537,3.73244417 109.118384,3.42874127 110.792287,4.02198114 C111.51944,4.27973128 112.204469,4.71610983 112.948886,4.85535018 C113.824163,5.01946721 114.755374,5.05609121 115.640664,4.95589343 C116.995186,4.80248719 117.785179,5.09789785 118.468482,6.27297581 C119.121746,7.39657282 119.787785,7.61251628 120.739023,6.73975917 C121.708215,5.85007214 122.496137,5.92953932 123.55372,6.55871218 C124.907896,7.36478595 126.370143,7.99188575 127.802697,8.66182877 C128.074085,8.78863076 128.442495,8.84494883 128.730111,8.77826546 C130.515192,8.36399952 132.204287,8.95378432 133.939993,9.1483062 C135.454378,9.3179514 136.27372,10.2000372 137.170058,11.2199814 C137.992508,12.1552757 139.034899,12.8936296 139.886352,13.8068113 C140.260287,14.2076024 140.568274,14.8143171 140.60729,15.3488204 C140.663225,16.1213797 141.05028,16.493839 141.655205,16.7737017 C143.342919,17.5545533 145.021309,17.526567 146.590248,16.5211343 C148.034541,15.5955142 149.604515,15.9313495 151.111303,16.0315472 C151.573629,16.0619521 152.106391,16.8673348 152.384684,17.4284423 C152.858404,18.3841217 153.310026,19.1725745 154.582371,18.9075686 C154.808873,18.8605793 155.131707,19.0240053 155.340254,19.1819032 C157.537942,20.842422 160.028078,21.6049616 162.746788,21.9363053 C163.877225,22.0738181 164.932046,22.8235737 166.025192,23.2844835 C166.766847,23.5971696 167.502287,23.9326594 168.264658,24.1859179 C169.505238,24.5984563 169.890221,25.7051233 169.105062,26.7530538 C168.957974,26.9493032 168.763583,27.1096196 168.604065,27.2975768 C167.730515,28.3247766 167.877602,28.7266042 168.835055,29.6684632 C170.187505,30.9997115 171.549967,32.0438413 173.513212,32.5030235 C174.675068,32.7749395 175.61284,34.0574709 176.617942,34.9246998 C177.013629,35.2664088 177.32127,35.7121161 177.662058,36.1163623 C178.199309,36.7538274 178.747609,36.7324058 179.402254,36.251802 C180.825485,35.2069811 181.726313,35.2608807 183.079798,36.3751489 C184.784085,37.7779176 186.12514,39.3893741 186.39998,41.7018693 C186.439687,42.0363225 186.800502,42.4505885 187.121609,42.6126325 C188.479928,43.29916 189.24817,44.2925 189.178078,45.8735517 C189.165303,46.1575605 189.321713,46.483376 189.483993,46.7355981 C190.245674,47.9168951 191.010808,49.0978466 191.826007,50.2421741 C192.394677,51.0409922 193.045179,51.7824558 193.662534,52.5463772 C194.788137,53.9387807 195.996951,55.2738297 197.00585,56.7457004 C197.451257,57.3956039 197.688463,58.3267521 197.669818,59.122115 C197.645648,60.1558794 197.921524,60.9878663 198.539225,61.7438412 C199.387915,62.7820973 200.004235,63.8552501 199.767374,65.2980981 C199.632717,66.11661 200.088827,66.6604421 200.989655,66.6362563 C201.721987,66.6162169 202.100756,67.0059515 202.25613,67.6579282 C202.663212,69.3647451 203.254671,71.0909111 201.864586,72.6249731 C203.252945,74.6234005 202.342104,77.147693 200.04912,77.8010517 C199.243244,78.0308156 199.074058,78.4879248 199.532241,79.2231687 C199.662411,79.4322023 199.81744,79.6256874 199.963837,79.8243554 C200.867772,81.0550605 200.806658,81.4074803 199.648254,82.3545219 C199.320586,82.6226373 198.805433,83.207585 198.880013,83.3243673 C199.143805,83.7362145 199.596808,84.2354757 200.030476,84.2907575 C201.48271,84.4762961 202.378013,85.4969312 203.451824,86.2715635 C204.174834,86.7925917 204.285323,87.376503 203.987349,88.1915601 C203.131407,90.5334236 203.358945,91.2251339 205.411961,92.6241019 C206.349042,93.2629489 207.002651,93.9712437 206.778912,95.237536 C206.731264,95.5077246 207.071707,95.9278643 207.337225,96.1586645 C209.18273,97.7614833 209.148202,99.063363 207.179433,100.525214 C206.698463,100.882126 206.089049,101.13642 205.744117,101.592838 C204.359557,103.425076 202.786821,105.12982 201.855954,107.282344 C201.389485,108.361025 200.778,109.375786 200.29116,110.446175 C200.175146,110.701161 200.17342,111.158616 200.328795,111.363503 C201.645681,113.099688 202.994677,114.812379 204.371296,116.501575 C204.836384,117.071666 204.899225,117.60997 204.585023,118.248126 C203.57198,120.303562 202.622469,122.378692 202.664938,124.748197 C201.749609,126.158567 202.152202,127.350575 202.008567,128.463807 C201.868384,129.55458 201.424013,130.607002 201.288664,131.697776 C201.158495,132.750543 201.13329,133.847882 201.278306,134.895467 C201.485472,136.387722 201.113609,137.145425 199.662756,137.575239 C197.682938,138.161568 196.947498,139.099627 196.965108,141.177521 C196.978228,142.731277 196.301485,143.96371 195.29017,145.03859 C195.031212,145.314307 194.581316,145.430398 194.200821,145.56722 C193.180182,145.933805 192.145733,146.26273 191.123368,146.624824 C190.418313,146.874973 190.610632,147.343484 190.872697,147.810267 C191.896788,149.632485 193.308626,151.072569 195.101303,152.150213 C196.370886,152.913443 196.682671,153.403722 196.07671,154.746717 C194.998065,157.138334 193.899739,159.565539 192.445088,161.732229 C189.904886,165.514522 187.543192,169.372481 185.733596,173.557984 C185.203596,174.783506 184.308984,175.5419 182.988645,175.774428 C182.748677,175.81658 182.463479,175.899848 182.261837,175.814852 C180.924235,175.253399 180.090736,175.92196 179.124306,176.78608 C176.861016,178.809384 174.169583,180.054254 171.198821,180.758403 C170.035583,181.034119 168.952795,181.652236 167.837896,182.124547 C167.515752,182.261024 167.218814,182.535013 166.893218,182.566109 C166.281388,182.625536 166.033824,182.875685 166.017942,183.489656 C166.006202,183.954366 165.800762,184.226627 165.249355,184.425986 C164.72557,184.615326 164.278436,185.20442 163.955257,185.717156 C163.432508,186.547069 162.808938,186.932313 161.793133,186.888433 C159.884443,186.806202 159.226345,187.444012 159.052326,189.385085 C158.967733,190.33109 158.906619,191.282623 158.900749,192.232083 C158.896261,192.98875 158.520254,193.100349 157.88529,193.016045 C155.533264,192.703013 153.072476,192.925176 151.030508,193.804152 C149.009602,194.674145 146.865779,195.454305 144.986091,196.679137 C143.701661,197.515615 142.357844,197.527708 140.932195,197.227115 C139.613238,196.94898 138.939602,197.464135 138.994156,198.785709 C139.034208,199.759354 138.579133,200.038871 137.733551,200.025051 C136.143896,199.998792 134.604651,199.951803 133.28017,198.782944 C132.93144,198.475441 132.067212,198.733191 131.441225,198.765669 C130.995472,198.788127 130.525896,198.989905 130.112599,198.900418 C128.535374,198.55629 126.985427,198.025588 125.342599,198.502736 C124.041251,198.880723 123.096573,199.502641 122.554834,200.92614 C122.199544,201.860398 121.180977,202.572148 120.379935,203.295299 C119.869616,203.755863 119.535388,204.088244 119.81817,204.870822 C120.230085,206.010659 120.46142,207.215796 120.768026,208.393638 C120.998326,209.278142 120.652704,209.773603 119.734612,209.759437 C119.253987,209.752181 118.779577,209.561115 118.296189,209.506524 C117.738912,209.44295 117.152632,209.522072 116.620215,209.382832 C116.178606,209.267777 115.668977,209.019701 115.409329,208.668318 C114.241257,207.085539 112.783498,205.989928 110.78987,205.851033 C109.971218,205.793678 109.111824,205.942939 108.307329,206.144716 C106.551596,206.58455 104.847655,206.748321 103.012508,206.409722 C100.951205,206.028625 98.763531,206.287757 96.7253615,205.839286 C94.0166644,205.243282 91.3148728,204.985877 88.5661236,205.003153 C85.9938112,205.019046 83.4218438,205.08642 80.8498764,205.075364 C79.2274203,205.068454 77.8173093,204.546389 76.4790161,203.515043 C75.7639478,202.964301 74.5910424,202.855465 73.6187425,202.833698 C72.5528728,202.810204 71.6237327,202.844755 70.9418112,201.808917 C70.7677916,201.544602 70.1342084,201.503832 69.709863,201.498649 C67.896469,201.475846 67.6354396,201.235717 67.6340585,199.425938 C67.6337135,199.072827 67.6192115,198.719025 67.6364757,198.367296 C67.684469,197.402634 67.1789839,196.971093 66.2785016,197.073018 C64.997179,197.217786 64.2296287,196.685356 63.7317394,195.520989 C63.2241825,194.334509 62.2864105,193.764073 60.9488077,193.871872 C60.5458697,193.904004 60.1177265,193.781348 59.7178956,193.669749 C58.6402865,193.36881 57.8558175,193.626214 57.3703583,194.631302 C57.0033289,195.391768 56.437075,195.507514 55.6822998,195.613931 C53.7742998,195.881701 52.5927622,195.08461 51.8514529,193.390923 C51.38671,192.329517 50.7282673,191.337905 50.3829902,190.243676 C50.0152704,189.078964 49.3326582,188.307095 48.333772,187.693125 C46.9851205,186.864939 45.6699608,185.982162 44.3413356,185.121497 C44.1345145,184.987094 43.8834984,184.884823 43.7364105,184.700667 C42.1515895,182.71917 39.8592963,182.147697 37.5708014,181.542019 C36.7594007,181.327112 35.9621564,181.038266 35.1852834,180.717633 C33.9926971,180.226318 33.256912,179.371873 33.1215635,178.025077 C33.0701173,177.514414 32.7769772,177.032428 32.6834072,176.520728 C32.5991596,176.058782 32.4952313,175.52186 32.6474984,175.110013 C33.1301954,173.803641 32.6889316,172.668642 31.2860717,172.202204 C30.2271075,171.85013 29.129127,171.58858 28.0301108,171.389566 C26.5319544,171.119032 25.7616417,170.586947 25.543772,169.094346 C25.2271531,166.926274 24.1643909,165.403268 22.2505212,164.363284 C21.6573355,164.040924 21.1445993,163.476361 20.7399349,162.917327 C19.4192508,161.093382 18.1662411,159.220374 16.8849186,157.367752 C16.5841824,156.932756 16.331785,156.445588 15.9592313,156.083839 C15.2085993,155.355505 14.65443,154.605058 14.542215,153.486298 C14.4445016,152.508852 13.7263257,151.986096 12.7388339,151.665463 C11.834899,151.37178 10.996912,150.807217 10.2089902,150.249565 C9.7345798,149.914075 9.4559414,149.314616 9.0126058,148.920044 C7.73577198,147.784009 7.30003257,146.577835 8.204658,144.944957 C8.7004756,144.050433 8.4031922,143.055365 7.62666448,142.34638 C7.0189772,141.791491 6.83494462,141.154026 6.87983061,140.364537 C6.95924431,138.962805 6.66679478,137.44429 7.11738112,136.184563 C7.66050161,134.665012 7.44401303,133.634702 6.60533552,132.336968 C5.78323128,131.064802 5.37097068,129.523138 4.82370683,128.083055 C4.74084038,127.864693 4.8375179,127.521256 4.95801954,127.291838 C5.45383713,126.349634 5.42379804,125.419867 5.06816287,124.440693 C4.62758956,123.226227 4.29474266,121.970991 3.81584364,120.77311 C3.63077524,120.310127 3.23025408,119.88515 2.83042347,119.563826 C0.71525733,117.863228 0.01054723,115.586321 0.14209772,112.994653 C0.16108795,112.618739 0.55815635,112.029991 0.884443,111.946032 C1.78216287,111.715231 1.72070358,111.25294 1.44206515,110.614784 C1.1337329,109.907871 0.74046254,109.223071 0.54296417,108.486099 C0.19216287,107.175582 0.56402606,106.335648 1.68686645,105.584165 C2.38708795,105.115654 3.11113356,104.683076 3.81342673,104.216983 C4.65831923,103.655876 5.41482084,103.775077 6.25764168,104.309926 C6.65125734,104.559729 7.33870357,104.649561 7.74060585,104.470242 C7.98920522,104.359333 8.0668925,103.593684 8.0209707,103.142103 C7.86283387,101.588002 7.04487296,100.471315 5.60265145,99.818647 C4.66764168,99.395398 4.65659282,98.5989982 4.84476872,97.7521544 C5.27049513,95.8376862 5.79911401,93.9398022 6.09259933,92.0059855 C6.2324365,91.0834749 6.04564168,90.0638762 5.80222151,89.1427477 C5.50424757,88.0156956 5.49354396,86.9667286 5.75699023,85.8279292 C5.95241695,84.9821218 5.99177849,84.0115856 5.77943324,83.1785623 C5.37614984,81.5944009 5.40239089,80.3184341 6.68751138,79.0397033 C7.65842998,78.0736588 8.326886,76.7593404 8.9483844,75.5096323 C9.1579674,75.0884562 8.9836026,74.2706351 8.6880456,73.8366753 C6.92747885,71.251573 7.19886644,68.774615 8.8050945,66.2465217 C9.649987,64.9159644 10.3584951,63.4986842 11.1288078,62.1211377 C13.0506189,60.704894 13.6472573,58.7634759 14.5839935,57.0452573 C15.7655309,54.8785667 17.4359805,53.1175048 19.3232639,51.554074 C20.5199935,50.5628072 21.7042932,49.5874337 22.3478892,48.08965 C22.7207883,47.2220752 23.4762541,47.2880678 24.2365537,47.6225211 C25.4098046,48.1387121 26.8385602,47.4936458 27.3820261,46.3392986 C27.6257915,45.8213796 28.0891531,45.3839646 28.5221303,44.9852467 C28.9323192,44.6069138 29.49443,44.3844057 29.8687101,43.9808506 C30.0865798,43.7462495 30.2205472,43.2269485 30.107987,42.951923 C30.0047492,42.6990101 29.5334463,42.499651 29.2019805,42.4585354 C28.6129381,42.3852875 28.0066319,42.4585354 27.4075765,42.4533526 C26.2415765,42.4436785 25.7564626,41.8421462 26.0523648,40.6936727 C26.5723518,38.6755515 27.7424951,37.0782608 29.3463062,35.7787994 C32.5449511,33.1874779 35.7498111,30.6037576 38.937062,27.9986156 C41.464834,25.9324686 43.1128403,23.2602978 44.1327885,20.1911366 C44.777075,18.2524825 45.7963324,16.6569195 47.8818046,16.1175791 C48.5005408,15.9576082 49.224241,16.1459109 49.8899349,16.242308 C50.5411272,16.3362866 51.2061303,16.7097825 51.8193418,16.6251326 C54.2107296,16.295862 56.4446711,16.7958143 58.5957461,17.7400919 C59.5863454,18.1747429 60.1263583,17.9049 60.8096613,17.1105735 C62.3703128,15.2963029 64.075635,13.6060703 65.7450487,11.8875058 C65.950834,11.676054 66.2892053,11.5827664 66.5792378,11.4666752 C67.4476091,11.1194381 68.0162802,10.5486563 68.3028599,9.6168171 C68.457544,9.1141008 68.7941888,8.561631 69.2140455,8.2651838 C70.9083191,7.06730223 72.6319415,5.90224405 74.4094266,4.83220103 C77.1837265,3.1623534 80.2463324,2.69315146 83.4508469,2.74601443 C84.9141303,2.77020009 86.382593,2.48169963 87.8489839,2.33693113 C89.0357002,2.2198034 90.2234529,2.11096789 91.4094788,1.98623895 C91.6801758,1.95790717 92.0627425,1.97310959 92.1942932,1.80795602 C92.9704757,0.83845626 94.003544,1.12522918 95.0082998,1.09413332 C97.3306319,1.02157632 99.649857,0.86333294 101.971153,0.75207887 C102.460756,0.72858423 102.955537,0.72720219 103.443759,0.76555374 C105.84585,0.95454747 106.713531,2.4371289 105.767127,4.70954513 C105.675283,4.9296347 105.586547,5.1507608 105.496085,5.37188691 C106.147967,5.50110748 106.653108,5.36981385 106.94901,5.04676244 L106.94901,5.04676244 L106.94901,5.04676244 Z" id="Shape"></path>
                                    </g>
                                </g>
                                <path d="M88.5818182,348.071429 L88.5818182,301.785714 L123.272727,324.928571 L88.5818182,348.071429 L88.5818182,348.071429 L88.5818182,348.071429 Z" id="Triangle-1"></path>
                            </g>
                        </g>
                    </g>
                </g>
            </g>
        </g>
    </g>
</svg>