<?xml version="1.0" encoding="UTF-8" standalone="no"?>
<svg width="287px" height="596px" viewBox="0 0 287 596" version="1.1" xmlns="http://www.w3.org/2000/svg" xmlns:xlink="http://www.w3.org/1999/xlink" xmlns:sketch="http://www.bohemiancoding.com/sketch/ns">
    <!-- Generator: Sketch 3.5.2 (25235) - http://www.bohemiancoding.com/sketch -->
    <title>iphone</title>
    <desc>Created with Sketch.</desc>
    <defs></defs>
    <g id="Page-1" stroke="none" stroke-width="1" fill="none" fill-rule="evenodd" sketch:type="MSPage">
        <g id="DOWNLOAD-OVERLAY" sketch:type="MSArtboardGroup" transform="translate(-1297.000000, -426.000000)">
            <g id="Overlay" sketch:type="MSLayerGroup">
                <g id="iphone" transform="translate(1300.000000, 428.000000)" sketch:type="MSShapeGroup">
                    <path d="M281,557.20224 C281,576.28152 265.456377,591.74496 246.281369,591.74496 L34.7207923,591.74496 C15.5457846,591.74496 0.00216153846,576.28152 0.00216153846,557.20224 L0.00216153846,34.71768 C0.00216153846,15.6384 15.5457846,0.17496 34.7207923,0.17496 L246.281369,0.17496 C265.456377,0.17496 281,15.6384 281,34.71768 L281,557.20224 L281,557.20224 L281,557.20224 L281,557.20224 Z" id="bezel" stroke="#000000" stroke-width="4.31999963" fill="#FDFDFD"></path>
                    <rect id="screen" stroke="#000000" stroke-width="4.31999963" fill="#FFFFFF" x="19.4538462" y="77.76" width="241.941" height="430.02144"></rect>
                    <path d="M166.438462,55.61136 C166.438462,56.98296 165.489546,58.08888 164.320154,58.08888 L120.868908,58.08888 C119.697354,58.08888 118.7506,56.9808 118.7506,55.61136 L118.7506,50.03856 C118.7506,48.66696 119.699515,47.56104 120.868908,47.56104 L164.320154,47.56104 C165.489546,47.56104 166.438462,48.66912 166.438462,50.03856 L166.438462,55.61136 L166.438462,55.61136 L166.438462,55.61136 L166.438462,55.61136 Z" id="speaker" stroke="#000000" stroke-width="4.31999963"></path>
                    <ellipse id="camera" stroke="#000000" stroke-width="4.31999963" cx="142.661538" cy="25.92" rx="6.48461538" ry="6.48"></ellipse>
                    <ellipse id="lock" stroke="#000000" stroke-width="4.31999963" cx="140.586462" cy="548.64216" rx="21.7018462" ry="21.60216"></ellipse>
                    <g id="np-phone-screen" transform="translate(34.000000, 122.000000)">
                        <g id="Layer_1" fill="#E0E0E0">
                            <g id="Group">
                                <path d="M108.94901,6.04676244 C110.149537,4.73244417 111.118384,4.42874127 112.792287,5.02198114 C113.51944,5.27973128 114.204469,5.71610983 114.948886,5.85535018 C115.824163,6.01946721 116.755374,6.05609121 117.640664,5.95589343 C118.995186,5.80248719 119.785179,6.09789785 120.468482,7.27297581 C121.121746,8.39657282 121.787785,8.61251628 122.739023,7.73975917 C123.708215,6.85007214 124.496137,6.92953932 125.55372,7.55871218 C126.907896,8.36478595 128.370143,8.99188575 129.802697,9.66182877 C130.074085,9.78863076 130.442495,9.84494883 130.730111,9.77826546 C132.515192,9.36399952 134.204287,9.95378432 135.939993,10.1483062 C137.454378,10.3179514 138.27372,11.2000372 139.170058,12.2199814 C139.992508,13.1552757 141.034899,13.8936296 141.886352,14.8068113 C142.260287,15.2076024 142.568274,15.8143171 142.60729,16.3488204 C142.663225,17.1213797 143.05028,17.493839 143.655205,17.7737017 C145.342919,18.5545533 147.021309,18.526567 148.590248,17.5211343 C150.034541,16.5955142 151.604515,16.9313495 153.111303,17.0315472 C153.573629,17.0619521 154.106391,17.8673348 154.384684,18.4284423 C154.858404,19.3841217 155.310026,20.1725745 156.582371,19.9075686 C156.808873,19.8605793 157.131707,20.0240053 157.340254,20.1819032 C159.537942,21.842422 162.028078,22.6049616 164.746788,22.9363053 C165.877225,23.0738181 166.932046,23.8235737 168.025192,24.2844835 C168.766847,24.5971696 169.502287,24.9326594 170.264658,25.1859179 C171.505238,25.5984563 171.890221,26.7051233 171.105062,27.7530538 C170.957974,27.9493032 170.763583,28.1096196 170.604065,28.2975768 C169.730515,29.3247766 169.877602,29.7266042 170.835055,30.6684632 C172.187505,31.9997115 173.549967,33.0438413 175.513212,33.5030235 C176.675068,33.7749395 177.61284,35.0574709 178.617942,35.9246998 C179.013629,36.2664088 179.32127,36.7121161 179.662058,37.1163623 C180.199309,37.7538274 180.747609,37.7324058 181.402254,37.251802 C182.825485,36.2069811 183.726313,36.2608807 185.079798,37.3751489 C186.784085,38.7779176 188.12514,40.3893741 188.39998,42.7018693 C188.439687,43.0363225 188.800502,43.4505885 189.121609,43.6126325 C190.479928,44.29916 191.24817,45.2925 191.178078,46.8735517 C191.165303,47.1575605 191.321713,47.483376 191.483993,47.7355981 C192.245674,48.9168951 193.010808,50.0978466 193.826007,51.2421741 C194.394677,52.0409922 195.045179,52.7824558 195.662534,53.5463772 C196.788137,54.9387807 197.996951,56.2738297 199.00585,57.7457004 C199.451257,58.3956039 199.688463,59.3267521 199.669818,60.122115 C199.645648,61.1558794 199.921524,61.9878663 200.539225,62.7438412 C201.387915,63.7820973 202.004235,64.8552501 201.767374,66.2980981 C201.632717,67.11661 202.088827,67.6604421 202.989655,67.6362563 C203.721987,67.6162169 204.100756,68.0059515 204.25613,68.6579282 C204.663212,70.3647451 205.254671,72.0909111 203.864586,73.6249731 C205.252945,75.6234005 204.342104,78.147693 202.04912,78.8010517 C201.243244,79.0308156 201.074058,79.4879248 201.532241,80.2231687 C201.662411,80.4322023 201.81744,80.6256874 201.963837,80.8243554 C202.867772,82.0550605 202.806658,82.4074803 201.648254,83.3545219 C201.320586,83.6226373 200.805433,84.207585 200.880013,84.3243673 C201.143805,84.7362145 201.596808,85.2354757 202.030476,85.2907575 C203.48271,85.4762961 204.378013,86.4969312 205.451824,87.2715635 C206.174834,87.7925917 206.285323,88.376503 205.987349,89.1915601 C205.131407,91.5334236 205.358945,92.2251339 207.411961,93.6241019 C208.349042,94.2629489 209.002651,94.9712437 208.778912,96.237536 C208.731264,96.5077246 209.071707,96.9278643 209.337225,97.1586645 C211.18273,98.7614833 211.148202,100.063363 209.179433,101.525214 C208.698463,101.882126 208.089049,102.13642 207.744117,102.592838 C206.359557,104.425076 204.786821,106.12982 203.855954,108.282344 C203.389485,109.361025 202.778,110.375786 202.29116,111.446175 C202.175146,111.701161 202.17342,112.158616 202.328795,112.363503 C203.645681,114.099688 204.994677,115.812379 206.371296,117.501575 C206.836384,118.071666 206.899225,118.60997 206.585023,119.248126 C205.57198,121.303562 204.622469,123.378692 204.664938,125.748197 C203.749609,127.158567 204.152202,128.350575 204.008567,129.463807 C203.868384,130.55458 203.424013,131.607002 203.288664,132.697776 C203.158495,133.750543 203.13329,134.847882 203.278306,135.895467 C203.485472,137.387722 203.113609,138.145425 201.662756,138.575239 C199.682938,139.161568 198.947498,140.099627 198.965108,142.177521 C198.978228,143.731277 198.301485,144.96371 197.29017,146.03859 C197.031212,146.314307 196.581316,146.430398 196.200821,146.56722 C195.180182,146.933805 194.145733,147.26273 193.123368,147.624824 C192.418313,147.874973 192.610632,148.343484 192.872697,148.810267 C193.896788,150.632485 195.308626,152.072569 197.101303,153.150213 C198.370886,153.913443 198.682671,154.403722 198.07671,155.746717 C196.998065,158.138334 195.899739,160.565539 194.445088,162.732229 C191.904886,166.514522 189.543192,170.372481 187.733596,174.557984 C187.203596,175.783506 186.308984,176.5419 184.988645,176.774428 C184.748677,176.81658 184.463479,176.899848 184.261837,176.814852 C182.924235,176.253399 182.090736,176.92196 181.124306,177.78608 C178.861016,179.809384 176.169583,181.054254 173.198821,181.758403 C172.035583,182.034119 170.952795,182.652236 169.837896,183.124547 C169.515752,183.261024 169.218814,183.535013 168.893218,183.566109 C168.281388,183.625536 168.033824,183.875685 168.017942,184.489656 C168.006202,184.954366 167.800762,185.226627 167.249355,185.425986 C166.72557,185.615326 166.278436,186.20442 165.955257,186.717156 C165.432508,187.547069 164.808938,187.932313 163.793133,187.888433 C161.884443,187.806202 161.226345,188.444012 161.052326,190.385085 C160.967733,191.33109 160.906619,192.282623 160.900749,193.232083 C160.896261,193.98875 160.520254,194.100349 159.88529,194.016045 C157.533264,193.703013 155.072476,193.925176 153.030508,194.804152 C151.009602,195.674145 148.865779,196.454305 146.986091,197.679137 C145.701661,198.515615 144.357844,198.527708 142.932195,198.227115 C141.613238,197.94898 140.939602,198.464135 140.994156,199.785709 C141.034208,200.759354 140.579133,201.038871 139.733551,201.025051 C138.143896,200.998792 136.604651,200.951803 135.28017,199.782944 C134.93144,199.475441 134.067212,199.733191 133.441225,199.765669 C132.995472,199.788127 132.525896,199.989905 132.112599,199.900418 C130.535374,199.55629 128.985427,199.025588 127.342599,199.502736 C126.041251,199.880723 125.096573,200.502641 124.554834,201.92614 C124.199544,202.860398 123.180977,203.572148 122.379935,204.295299 C121.869616,204.755863 121.535388,205.088244 121.81817,205.870822 C122.230085,207.010659 122.46142,208.215796 122.768026,209.393638 C122.998326,210.278142 122.652704,210.773603 121.734612,210.759437 C121.253987,210.752181 120.779577,210.561115 120.296189,210.506524 C119.738912,210.44295 119.152632,210.522072 118.620215,210.382832 C118.178606,210.267777 117.668977,210.019701 117.409329,209.668318 C116.241257,208.085539 114.783498,206.989928 112.78987,206.851033 C111.971218,206.793678 111.111824,206.942939 110.307329,207.144716 C108.551596,207.58455 106.847655,207.748321 105.012508,207.409722 C102.951205,207.028625 100.763531,207.287757 98.7253615,206.839286 C96.0166644,206.243282 93.3148728,205.985877 90.5661236,206.003153 C87.9938112,206.019046 85.4218438,206.08642 82.8498764,206.075364 C81.2274203,206.068454 79.8173093,205.546389 78.4790161,204.515043 C77.7639478,203.964301 76.5910424,203.855465 75.6187425,203.833698 C74.5528728,203.810204 73.6237327,203.844755 72.9418112,202.808917 C72.7677916,202.544602 72.1342084,202.503832 71.709863,202.498649 C69.896469,202.475846 69.6354396,202.235717 69.6340585,200.425938 C69.6337135,200.072827 69.6192115,199.719025 69.6364757,199.367296 C69.684469,198.402634 69.1789839,197.971093 68.2785016,198.073018 C66.997179,198.217786 66.2296287,197.685356 65.7317394,196.520989 C65.2241825,195.334509 64.2864105,194.764073 62.9488077,194.871872 C62.5458697,194.904004 62.1177265,194.781348 61.7178956,194.669749 C60.6402865,194.36881 59.8558175,194.626214 59.3703583,195.631302 C59.0033289,196.391768 58.437075,196.507514 57.6822998,196.613931 C55.7742998,196.881701 54.5927622,196.08461 53.8514529,194.390923 C53.38671,193.329517 52.7282673,192.337905 52.3829902,191.243676 C52.0152704,190.078964 51.3326582,189.307095 50.333772,188.693125 C48.9851205,187.864939 47.6699608,186.982162 46.3413356,186.121497 C46.1345145,185.987094 45.8834984,185.884823 45.7364105,185.700667 C44.1515895,183.71917 41.8592963,183.147697 39.5708014,182.542019 C38.7594007,182.327112 37.9621564,182.038266 37.1852834,181.717633 C35.9926971,181.226318 35.256912,180.371873 35.1215635,179.025077 C35.0701173,178.514414 34.7769772,178.032428 34.6834072,177.520728 C34.5991596,177.058782 34.4952313,176.52186 34.6474984,176.110013 C35.1301954,174.803641 34.6889316,173.668642 33.2860717,173.202204 C32.2271075,172.85013 31.129127,172.58858 30.0301108,172.389566 C28.5319544,172.119032 27.7616417,171.586947 27.543772,170.094346 C27.2271531,167.926274 26.1643909,166.403268 24.2505212,165.363284 C23.6573355,165.040924 23.1445993,164.476361 22.7399349,163.917327 C21.4192508,162.093382 20.1662411,160.220374 18.8849186,158.367752 C18.5841824,157.932756 18.331785,157.445588 17.9592313,157.083839 C17.2085993,156.355505 16.65443,155.605058 16.542215,154.486298 C16.4445016,153.508852 15.7263257,152.986096 14.7388339,152.665463 C13.834899,152.37178 12.996912,151.807217 12.2089902,151.249565 C11.7345798,150.914075 11.4559414,150.314616 11.0126058,149.920044 C9.73577198,148.784009 9.30003257,147.577835 10.204658,145.944957 C10.7004756,145.050433 10.4031922,144.055365 9.62666448,143.34638 C9.0189772,142.791491 8.83494462,142.154026 8.87983061,141.364537 C8.95924431,139.962805 8.66679478,138.44429 9.11738112,137.184563 C9.66050161,135.665012 9.44401303,134.634702 8.60533552,133.336968 C7.78323128,132.064802 7.37097068,130.523138 6.82370683,129.083055 C6.74084038,128.864693 6.8375179,128.521256 6.95801954,128.291838 C7.45383713,127.349634 7.42379804,126.419867 7.06816287,125.440693 C6.62758956,124.226227 6.29474266,122.970991 5.81584364,121.77311 C5.63077524,121.310127 5.23025408,120.88515 4.83042347,120.563826 C2.71525733,118.863228 2.01054723,116.586321 2.14209772,113.994653 C2.16108795,113.618739 2.55815635,113.029991 2.884443,112.946032 C3.78216287,112.715231 3.72070358,112.25294 3.44206515,111.614784 C3.1337329,110.907871 2.74046254,110.223071 2.54296417,109.486099 C2.19216287,108.175582 2.56402606,107.335648 3.68686645,106.584165 C4.38708795,106.115654 5.11113356,105.683076 5.81342673,105.216983 C6.65831923,104.655876 7.41482084,104.775077 8.25764168,105.309926 C8.65125734,105.559729 9.33870357,105.649561 9.74060585,105.470242 C9.98920522,105.359333 10.0668925,104.593684 10.0209707,104.142103 C9.86283387,102.588002 9.04487296,101.471315 7.60265145,100.818647 C6.66764168,100.395398 6.65659282,99.5989982 6.84476872,98.7521544 C7.27049513,96.8376862 7.79911401,94.9398022 8.09259933,93.0059855 C8.2324365,92.0834749 8.04564168,91.0638762 7.80222151,90.1427477 C7.50424757,89.0156956 7.49354396,87.9667286 7.75699023,86.8279292 C7.95241695,85.9821218 7.99177849,85.0115856 7.77943324,84.1785623 C7.37614984,82.5944009 7.40239089,81.3184341 8.68751138,80.0397033 C9.65842998,79.0736588 10.326886,77.7593404 10.9483844,76.5096323 C11.1579674,76.0884562 10.9836026,75.2706351 10.6880456,74.8366753 C8.92747885,72.251573 9.19886644,69.774615 10.8050945,67.2465217 C11.649987,65.9159644 12.3584951,64.4986842 13.1288078,63.1211377 C15.0506189,61.704894 15.6472573,59.7634759 16.5839935,58.0452573 C17.7655309,55.8785667 19.4359805,54.1175048 21.3232639,52.554074 C22.5199935,51.5628072 23.7042932,50.5874337 24.3478892,49.08965 C24.7207883,48.2220752 25.4762541,48.2880678 26.2365537,48.6225211 C27.4098046,49.1387121 28.8385602,48.4936458 29.3820261,47.3392986 C29.6257915,46.8213796 30.0891531,46.3839646 30.5221303,45.9852467 C30.9323192,45.6069138 31.49443,45.3844057 31.8687101,44.9808506 C32.0865798,44.7462495 32.2205472,44.2269485 32.107987,43.951923 C32.0047492,43.6990101 31.5334463,43.499651 31.2019805,43.4585354 C30.6129381,43.3852875 30.0066319,43.4585354 29.4075765,43.4533526 C28.2415765,43.4436785 27.7564626,42.8421462 28.0523648,41.6936727 C28.5723518,39.6755515 29.7424951,38.0782608 31.3463062,36.7787994 C34.5449511,34.1874779 37.7498111,31.6037576 40.937062,28.9986156 C43.464834,26.9324686 45.1128403,24.2602978 46.1327885,21.1911366 C46.777075,19.2524825 47.7963324,17.6569195 49.8818046,17.1175791 C50.5005408,16.9576082 51.224241,17.1459109 51.8899349,17.242308 C52.5411272,17.3362866 53.2061303,17.7097825 53.8193418,17.6251326 C56.2107296,17.295862 58.4446711,17.7958143 60.5957461,18.7400919 C61.5863454,19.1747429 62.1263583,18.9049 62.8096613,18.1105735 C64.3703128,16.2963029 66.075635,14.6060703 67.7450487,12.8875058 C67.950834,12.676054 68.2892053,12.5827664 68.5792378,12.4666752 C69.4476091,12.1194381 70.0162802,11.5486563 70.3028599,10.6168171 C70.457544,10.1141008 70.7941888,9.561631 71.2140455,9.2651838 C72.9083191,8.06730223 74.6319415,6.90224405 76.4094266,5.83220103 C79.1837265,4.1623534 82.2463324,3.69315146 85.4508469,3.74601443 C86.9141303,3.77020009 88.382593,3.48169963 89.8489839,3.33693113 C91.0357002,3.2198034 92.2234529,3.11096789 93.4094788,2.98623895 C93.6801758,2.95790717 94.0627425,2.97310959 94.1942932,2.80795602 C94.9704757,1.83845626 96.003544,2.12522918 97.0082998,2.09413332 C99.3306319,2.02157632 101.649857,1.86333294 103.971153,1.75207887 C104.460756,1.72858423 104.955537,1.72720219 105.443759,1.76555374 C107.84585,1.95454747 108.713531,3.4371289 107.767127,5.70954513 C107.675283,5.9296347 107.586547,6.1507608 107.496085,6.37188691 C108.147967,6.50110748 108.653108,6.36981385 108.94901,6.04676244 L108.94901,6.04676244 Z" id="Shape"></path>
                            </g>
                        </g>
                        <path d="M90.5818182,349.071429 L90.5818182,302.785714 L125.272727,325.928571 L90.5818182,349.071429 L90.5818182,349.071429 Z" id="Triangle-1" fill="#000000"></path>
                    </g>
                </g>
            </g>
        </g>
    </g>
</svg>