<?xml version="1.0" encoding="UTF-8" standalone="no"?>
<svg width="145px" height="145px" viewBox="0 0 145 145" version="1.1" xmlns="http://www.w3.org/2000/svg" xmlns:xlink="http://www.w3.org/1999/xlink">
    <defs></defs>
    <g id="Page-1" stroke="none" stroke-width="1" fill="none" fill-rule="evenodd">
        <g id="Artboard-1" transform="translate(-58.000000, -86.000000)" stroke-width="2" stroke="#3863FF" fill="#FFFFFF">
            <g id="white_label_logo-68392916" transform="translate(59.000000, 87.000000)">
                <g id="Artboard-1">
                    <g id="white_label_logo">
                        <g id="Group">
                            <g id="Shape">
                                <path d="M70.8638434,0.36135 C32.1998725,0.45485 0.409557377,32.3741 0.376112933,71.38395 C0.342668488,110.7436 32.0534845,142.6271 71.2465355,142.63975 C109.845262,142.68155 142.66139,111.3035 142.168495,70.5518 C141.695339,31.3874 109.744381,0.2673 70.8638434,0.36135 L70.8638434,0.36135 L70.8638434,0.36135 L70.8638434,0.36135 Z M47.6736849,71.37185 C47.7487978,58.2263 58.3210801,47.76145 71.471326,47.8159 C84.5338488,47.87035 94.941102,58.5156 94.8764062,71.7563 C94.8122587,84.81165 84.2207869,95.2479 71.0995993,95.1841 C58.1006758,95.12085 47.5991202,84.4459 47.6736849,71.37185 L47.6736849,71.37185 L47.6736849,71.37185 L47.6736849,71.37185 Z M86.0043078,71.2899 C85.8803989,62.5955 78.652561,56.45475 70.8353333,56.7314 C62.6880474,57.02015 56.2414936,63.888 56.5649727,71.8278 C56.903255,80.1284 63.7297596,86.62115 71.7591676,86.2785 C79.8609472,85.93255 86.3365592,79.11915 86.0043078,71.2899 L86.0043078,71.2899 L86.0043078,71.2899 L86.0043078,71.2899 Z"></path>
                            </g>
                        </g>
                    </g>
                </g>
            </g>
        </g>
    </g>
</svg>