<?xml version="1.0" encoding="UTF-8" standalone="no"?>
<svg width="94px" height="94px" viewBox="0 0 94 94" version="1.1" xmlns="http://www.w3.org/2000/svg" xmlns:xlink="http://www.w3.org/1999/xlink" xmlns:sketch="http://www.bohemiancoding.com/sketch/ns">
    <!-- Generator: Sketch 3.4 (15575) - http://www.bohemiancoding.com/sketch -->
    <title>Made In CA</title>
    <desc>Created with Sketch.</desc>
    <defs>
        <rect id="path-1" x="0" y="44.991453" width="94" height="49.008547"></rect>
    </defs>
    <g id="Page-1" stroke="none" stroke-width="1" fill="none" fill-rule="evenodd" sketch:type="MSPage">
        <g id="NP-Studio-2" sketch:type="MSArtboardGroup" transform="translate(-673.000000, -1855.000000)">
            <g id="Made-In-CA" sketch:type="MSLayerGroup" transform="translate(673.000000, 1855.000000)">
                <rect id="Rectangle-2" stroke="#CCCCCC" stroke-width="1.20000002" sketch:type="MSShapeGroup" x="0" y="0" width="94" height="94"></rect>
                <g id="Rectangle-2">
                    <use stroke="#FFFFFF" stroke-width="1.20000002" sketch:type="MSShapeGroup" xlink:href="#path-1"></use>
                    <use stroke="none" xlink:href="#path-1"></use>
                </g>
                <g id="waves" transform="translate(1.205128, 41.777778)" fill="#CCCCCC" sketch:type="MSShapeGroup">
                    <g id="Shape">
                        <g id="Page-1">
                            <g id="Letter">
                                <path d="M83.8027395,0.874276423 C80.8619191,-0.229993329 77.8435093,-0.0513012299 74.9459428,1.21204545 C73.259709,1.94729122 71.5926496,2.72607838 69.9351774,3.52081634 C66.5167803,5.15986908 62.9819989,5.84424474 59.3116589,4.48691766 C57.2771642,3.73464332 55.3171375,2.78082843 53.3613471,1.84425766 C50.0078309,0.238615385 46.5470717,-0.451795706 42.9485243,0.854445695 C40.9104622,1.5944336 38.964036,2.57971899 37.0037864,3.50896102 C33.5811531,5.13163185 30.0523916,5.85997999 26.374694,4.50567063 C24.3401992,3.75641401 22.3754905,2.81294559 20.4288413,1.86257953 C16.7047683,0.0444035856 12.9242869,-0.469686471 9.00713205,1.21010548 C5.91046383,2.53790202 3.13546297,3.78917771 0,5.15512685 C0.299210076,5.71297384 0.390907455,6.46395497 0.689448657,7.14746842 C1.03681773,7.94306858 1.55608768,7.99717198 2.27356758,7.66069627 C4.07150354,6.81745925 21.9906644,6.05850281 24.2588194,7.10996248 C27.3398806,8.53820596 30.5197123,9.25642318 33.8299746,8.13081384 C35.8807453,7.43372066 54.4065757,5.84230477 56.4858851,6.77650448 C59.0280559,7.91871128 61.5922997,8.92102522 64.4847381,8.60653575 C66.9613592,8.33688097 69.1699844,7.33564478 71.3485102,6.2509902 C73.8868908,4.98721242 86.2954597,5.73776231 89.5811966,7.66069623 C89.9093912,7.85275251 90.6680723,7.62448364 91.0627085,7.86741005 C91.6490889,6.75775151 91.0341314,6.20637096 91.5897436,5.15512685 C88.532762,3.81719939 86.7881515,1.99514363 83.8027395,0.874276423 Z" id="Shape"></path>
                            </g>
                        </g>
                    </g>
                </g>
                <rect id="Rectangle-4" fill="#CCCCCC" sketch:type="MSShapeGroup" x="92.7948718" y="44.991453" width="1.20512821" height="2.00854701"></rect>
                <rect id="Rectangle-4" fill="#CCCCCC" sketch:type="MSShapeGroup" x="0" y="44.991453" width="1.20512821" height="2.00854701"></rect>
                <rect id="Rectangle-12" fill="#CCCCCC" sketch:type="MSShapeGroup" x="0" y="47" width="94" height="47"></rect>
                <path d="M15.462,19.432 L15.462,28 L17.23,28 L17.23,24.753 C17.23,22.203 18.165,20.86 19.236,20.86 C19.984,20.86 20.494,21.319 20.494,22.254 L20.494,28 L22.262,28 L22.262,24.566 C22.262,22.203 23.214,20.86 24.268,20.86 C25.016,20.86 25.526,21.319 25.526,22.254 L25.526,28 L27.294,28 L27.294,21.863 C27.294,20.367 26.41,19.296 24.846,19.296 C23.741,19.296 22.772,19.942 22.177,21.064 C21.922,19.993 20.97,19.296 19.814,19.296 C18.777,19.296 17.927,19.823 17.23,20.894 L17.23,19.432 L15.462,19.432 Z M29.9921428,25.535 C29.9921428,27.32 31.1991428,28.136 32.6271428,28.136 C33.8341428,28.136 34.7181428,27.66 35.2791428,26.878 L35.4491428,28 L36.9451428,28 L36.9451428,22.679 C36.9451428,20.163 35.5171428,19.296 33.5281428,19.296 C31.8791428,19.296 30.6551428,20.214 30.2981428,21.659 L31.9131428,21.999 C32.2021428,21.234 32.8141428,20.86 33.5111428,20.86 C34.4121428,20.86 35.1771428,21.285 35.1771428,22.356 L35.1771428,22.73 L33.6981428,22.73 C31.5051428,22.73 29.9921428,23.767 29.9921428,25.535 L29.9921428,25.535 Z M31.8621428,25.535 C31.8621428,24.719 32.5421428,24.209 33.6301428,24.209 L35.1771428,24.209 L35.1771428,24.396 C35.1771428,25.875 34.0211428,26.572 32.9331428,26.572 C32.1851428,26.572 31.8621428,26.113 31.8621428,25.535 L31.8621428,25.535 Z M39.7622856,23.716 C39.7622856,26.453 41.0542856,28.136 43.5872856,28.136 C44.7092856,28.136 45.6272856,27.507 45.9162856,27.014 L45.9162856,28 L47.6842856,28 L47.6842856,15.964 L45.9162856,15.964 L45.9162856,20.384 C45.5252856,19.823 44.4712856,19.296 43.6212856,19.296 C41.0542856,19.296 39.7622856,21.064 39.7622856,23.716 L39.7622856,23.716 Z M41.6322856,23.716 C41.6322856,21.948 42.5502856,20.86 43.8252856,20.86 C45.1002856,20.86 46.0182856,21.948 46.0182856,23.716 C46.0182856,25.484 45.1002856,26.572 43.8252856,26.572 C42.5502856,26.572 41.6322856,25.484 41.6322856,23.716 L41.6322856,23.716 Z M54.4114285,20.86 C55.6864285,20.86 56.3324285,21.778 56.4854285,22.73 L52.3204285,22.73 C52.5074285,21.659 53.2384285,20.86 54.4114285,20.86 L54.4114285,20.86 Z M58.3554285,23.444 C58.3554285,21.523 57.1484285,19.296 54.4114285,19.296 C51.5894285,19.296 50.4164285,21.676 50.4164285,23.716 C50.4164285,25.756 51.5894285,28.136 54.4114285,28.136 C56.3664285,28.136 57.3354285,27.337 58.1684285,25.722 L56.6554285,25.127 C56.2134285,26.062 55.3294285,26.572 54.4114285,26.572 C53.0174285,26.572 52.2864285,25.467 52.2864285,24.209 L58.3554285,24.209 L58.3554285,23.444 Z M66.0637141,17.018 C66.0637141,17.698 66.5907141,18.225 67.2877141,18.225 C67.9847141,18.225 68.5117141,17.698 68.5117141,17.018 C68.5117141,16.338 67.9847141,15.777 67.2877141,15.777 C66.5907141,15.777 66.0637141,16.338 66.0637141,17.018 L66.0637141,17.018 Z M66.4037141,19.432 L66.4037141,28 L68.1717141,28 L68.1717141,19.432 L66.4037141,19.432 Z M71.2438569,19.432 L71.2438569,28 L73.0118569,28 L73.0118569,24.532 C73.0118569,22.169 74.0998569,20.86 75.2048569,20.86 C76.0038569,20.86 76.5308569,21.268 76.5308569,22.424 L76.5308569,28 L78.2988569,28 L78.2988569,21.863 C78.2988569,20.197 77.2788569,19.296 75.7828569,19.296 C74.6438569,19.296 73.6238569,19.874 73.0118569,20.894 L73.0118569,19.432 L71.2438569,19.432 Z" id="made-in" fill="#CCCCCC" sketch:type="MSShapeGroup"></path>
                <path d="M46.063,66.608 C45.172,62.99 42.337,60.884 38.233,60.884 C33.508,60.884 29.296,64.232 29.296,70.55 C29.296,76.868 33.508,80.216 38.233,80.216 C42.337,80.216 45.172,78.11 46.063,74.492 L42.904,73.682 C42.175,75.599 40.852,76.976 38.233,76.976 C35.317,76.976 32.86,74.924 32.86,70.55 C32.86,66.176 35.317,64.124 38.233,64.124 C40.852,64.124 42.175,65.501 42.904,67.418 L46.063,66.608 Z M60.7432857,80 L64.5232857,80 L58.1242857,61.1 L54.6142857,61.1 L48.2152857,80 L51.9952857,80 L53.3722857,75.545 L59.3662857,75.545 L60.7432857,80 Z M56.3692857,65.744 L58.3672857,72.305 L54.3712857,72.305 L56.3692857,65.744 Z" id="CA" fill="#FFFFFF" sketch:type="MSShapeGroup"></path>
            </g>
        </g>
    </g>
</svg>