<?xml version="1.0" encoding="UTF-8" standalone="no"?>
<svg width="169px" height="169px" viewBox="0 0 169 169" version="1.1" xmlns="http://www.w3.org/2000/svg" xmlns:xlink="http://www.w3.org/1999/xlink" xmlns:sketch="http://www.bohemiancoding.com/sketch/ns">
    <defs></defs>
    <g id="Page-1" stroke="none" stroke-width="1" fill="none" fill-rule="evenodd" sketch:type="MSPage">
        <g id="NP-Studio-2" sketch:type="MSArtboardGroup" transform="translate(-636.000000, -100.000000)" fill="#000000">
            <g id="noon_pacific_logo_vector" sketch:type="MSLayerGroup" transform="translate(636.000000, 100.000000)">
                <g id="Layer_1" sketch:type="MSShapeGroup">
                    <path d="M84.6438075,168.940745 C40.157619,169.29873 1.58992961,133.731944 0.259273292,87.248529 C-1.11477019,39.2602427 36.2391284,2.71416805 79.6175445,0.420746888 C129.293048,-2.20541494 167.454157,36.7252427 168.76312,82.0312676 C170.147311,129.919977 131.709083,169.03401 84.6438075,168.940745 L84.6438075,168.940745 Z M4.11093375,82.8867863 C3.7879793,87.6384212 4.39819876,93.4804917 5.59344513,99.2654108 C5.68861698,99.7254274 6.28554037,100.324992 6.73795652,100.415452 C7.57140994,100.581647 8.47799172,100.479616 9.34153623,100.38039 C13.7960683,99.8702344 17.7810393,98.064529 21.7100269,96.0007656 C26.3318095,93.5734066 31.1355383,91.6807469 36.5487867,92.4619336 C40.5963892,93.0464212 44.1527371,94.9131349 47.7286791,96.7314627 C51.7405921,98.7717344 55.7983416,100.757309 60.4565135,100.445956 C64.615383,100.168263 68.3620745,98.4943921 72.1147143,96.7675768 C75.6318737,95.1487531 79.2211118,93.4906598 82.9566066,92.5941183 C87.7305942,91.4482842 92.270501,93.0891971 96.5483354,95.2795353 C100.42099,97.2626556 104.24011,99.435112 108.635859,99.9926017 C110.72789,100.258023 113.035458,100.635994 114.958839,100.037481 C118.916867,98.8064461 122.745435,97.087695 126.510671,95.3209087 C130.967302,93.2294461 135.547447,91.4244419 140.450896,92.6186618 C144.186741,93.528527 147.692354,95.3668402 151.32393,96.7293589 C154.733671,98.0087801 158.160207,99.2457759 161.611236,100.406687 C162.33972,100.651421 163.198017,100.674562 163.429648,99.435112 C165.515731,88.2853195 165.495437,77.2007427 162.937344,66.0982842 C160.00871,53.3903257 154.036677,42.2678817 145.766174,32.3459689 C138.855718,24.0555021 130.464851,17.5402365 120.861942,12.6416909 C111.533002,7.88269295 101.615186,5.20534025 91.1840725,4.23271369 C83.3953768,3.50622407 75.7140994,4.17415975 68.0786584,5.53667842 C61.3375528,6.7396639 54.985882,9.23223859 48.8798385,12.2679274 C34.0753685,19.6285436 22.5837184,30.6096867 14.3793458,44.9378714 C7.87721946,56.2924274 4.23059834,68.5305519 4.11093375,82.8867863 L4.11093375,82.8867863 Z M161.921594,107.090952 C160.567495,106.795728 159.374348,106.709124 158.325008,106.274703 C154.787205,104.810154 151.25605,103.314398 147.803971,101.659811 C142.482046,99.1090332 137.033458,97.7787718 131.3123,99.9782261 C128.124043,101.204353 125.067698,102.79127 121.998406,104.310166 C116.567313,106.997687 110.963021,108.149481 105.149141,105.872189 C101.528412,104.454272 98.0700352,102.622971 94.5308323,100.993979 C89.8282236,98.8292365 84.9727101,98.0333237 80.0118778,99.9017905 C77.0888427,101.003095 74.2648282,102.384898 71.4471118,103.746365 C66.6598282,106.059421 61.7591781,108.087071 56.3599255,106.633741 C53.1345797,105.7656 50.0785839,104.260728 46.9564576,103.017421 C43.8367805,101.774465 40.8126253,100.197716 37.5970766,99.3120436 C32.6841801,97.9589917 28.0819917,99.5637905 23.6593002,101.702587 C19.0627101,103.925533 14.6340704,106.602185 9.36917805,107.034151 C8.69772671,107.089199 8.0322236,107.215774 7.15013458,107.338842 C7.48778468,108.382295 7.75790476,109.260954 8.05566667,110.130849 C9.0262795,112.965631 9.10850518,113.178108 11.9433665,112.134656 C16.12253,110.596826 20.2369627,108.846869 24.2695197,106.953158 C29.8549172,104.330853 35.5022464,103.518811 41.3073789,105.92934 C44.4141097,107.219631 47.3917288,108.821975 50.4340787,110.269344 C55.1471843,112.511575 60.0562319,113.664071 65.1279814,111.865378 C68.448499,110.687637 71.6402547,109.102473 74.7984203,107.51766 C80.6640849,104.573834 86.6588613,103.282141 92.9545487,105.900589 C96.1665983,107.23611 99.2621325,108.85283 102.408752,110.34578 C106.964054,112.507017 111.700952,113.58483 116.612099,111.933048 C119.565226,110.939734 122.392389,109.539349 125.212555,108.1884 C128.57681,106.576589 131.927068,104.956012 135.693704,104.556303 C140.274199,104.069639 144.391431,105.592392 148.427487,107.535892 C151.512174,109.02183 154.619255,110.48077 157.798414,111.744413 C159.695553,112.4979 160.534605,112.563116 160.912493,110.264436 C161.078694,109.248332 161.532509,108.280263 161.921594,107.090952 L161.921594,107.090952 Z M157.682598,118.499154 C152.885168,116.32284 148.376752,114.042041 143.691638,112.218805 C139.076503,110.422566 134.339605,110.713232 129.79235,112.76823 C127.146083,113.964203 124.529907,115.231002 121.928776,116.523747 C116.564164,119.18988 111.016905,120.303106 105.256909,118.095237 C102.064104,116.871564 98.9881636,115.32006 95.9188716,113.796606 C90.6560787,111.18482 85.2249855,110.061776 79.5776563,112.186548 C76.3792526,113.390234 73.3246563,114.992929 70.2483665,116.504463 C64.8771056,119.143948 59.339294,120.328701 53.5677516,118.125741 C50.3749462,116.906977 47.2916584,115.372303 44.2367122,113.826409 C38.3923913,110.868909 32.4595466,110.032674 26.3122153,112.765075 C21.4525031,114.924909 16.6158841,117.137336 11.6952899,119.35923 C12.1648509,120.266641 12.7904658,121.311145 13.2589772,122.422969 C13.8041159,123.717116 14.6190248,123.805122 15.7449917,123.257801 C18.5665569,121.886166 21.4014182,120.541178 24.2289317,119.182166 C29.105089,116.837905 34.1971325,115.694174 39.4287847,117.538799 C43.1404865,118.847322 46.6877371,120.651624 50.247234,122.361961 C55.0824534,124.685185 60.072677,125.853459 65.2675901,124.022508 C68.4859379,122.888595 71.5639772,121.321664 74.6329193,119.802768 C79.8341304,117.228849 85.1973437,115.544809 90.9349462,117.485504 C94.3310414,118.634143 97.5591863,120.29995 100.822321,121.819548 C104.811841,123.677496 108.836,125.30789 113.375207,124.796332 C117.261857,124.357703 120.727932,122.729062 124.14677,120.96473 C128.130342,118.909031 132.12301,116.842463 136.745143,116.717992 C143.039081,116.54829 148.292776,119.424797 153.449201,122.552699 C153.964248,122.865104 154.46565,123.198896 155.084967,123.594048 C156.005195,121.789044 156.810656,120.209139 157.682598,118.499154 L157.682598,118.499154 Z M151.983135,128.655282 C151.772847,128.413353 151.657031,128.183695 151.471936,128.081664 C150.250797,127.410923 149.015313,126.76718 147.783677,126.115724 C141.403315,122.741685 134.949474,122.309367 128.361623,125.543859 C125.185613,127.103778 122.008203,128.680878 118.741219,130.030423 C114.703064,131.698685 110.468617,132.134158 106.317445,130.566174 C102.744652,129.216629 99.2677308,127.587988 95.8223002,125.928141 C90.4636356,123.346508 84.9685114,122.302705 79.2742961,124.484278 C76.1917081,125.664824 73.2354327,127.195992 70.2763582,128.677722 C64.9190932,131.359633 59.3872298,132.520544 53.623735,130.330556 C50.3798447,129.097768 47.2580683,127.517162 44.1499379,125.955139 C37.6960973,122.712232 31.2324596,122.370376 24.6855466,125.61188 C22.2681118,126.808905 19.8534762,128.011189 17.4251946,129.21733 C17.6438799,129.641232 17.7061615,129.806726 17.8044824,129.946975 C20.1438903,133.281745 20.1554369,133.303834 23.7761656,131.572811 C28.8115259,129.164737 34.0519255,127.844293 39.4791698,129.746419 C43.2423064,131.065461 46.8175487,132.939888 50.4351284,134.655133 C55.7567039,137.17751 61.1724017,138.110166 66.7654969,135.692624 C69.955853,134.313627 73.0779793,132.774044 76.2162008,131.275834 C81.0041843,128.990477 86.0105031,127.959647 91.1095445,129.723979 C94.8807288,131.028996 98.4629689,132.90132 102.088596,134.607098 C106.808,136.82794 111.694304,138.091583 116.761155,136.276411 C120.519743,134.92932 124.132774,133.141846 127.73006,131.385228 C133.666054,128.486633 139.602048,128.044147 145.738882,130.741836 C149.542957,132.414656 149.582845,132.322793 151.983135,128.655282 L151.983135,128.655282 Z M145.545039,137.343004 C141.226267,135.397751 137.009665,134.771539 132.886484,136.169822 C128.67758,137.597205 124.68981,139.686564 120.621913,141.523826 C115.537217,143.820052 110.325859,144.522349 105.043122,142.436846 C101.917847,141.203357 98.912236,139.65571 95.8950787,138.163461 C90.68547,135.587087 85.3033623,134.520143 79.6980207,136.539728 C76.9229917,137.539703 74.1927495,138.770388 71.6259089,140.223017 C63.7896273,144.656988 56.0894555,144.633145 48.2153851,140.268598 C45.1859814,138.589116 41.9452402,137.155071 38.6369689,136.150187 C33.6960807,134.649523 28.9150952,135.672639 23.9420166,138.255674 C24.9395714,139.156073 25.8426542,139.747573 26.4423768,140.563471 C27.3933954,141.856917 28.4994182,142.055369 29.933294,141.634272 C33.4773954,140.592923 37.0099503,140.893056 40.3703561,142.25312 C43.8038903,143.642988 47.1377039,145.287056 50.4785155,146.896763 C55.9250041,149.520471 61.478911,150.239598 67.1552816,147.802421 C70.2476667,146.474614 73.2319337,144.895411 76.2816315,143.466624 C80.6483395,141.420392 85.2113395,140.132205 89.9527867,141.694579 C93.6763851,142.921407 97.2943147,144.531114 100.841215,146.219712 C105.899319,148.628488 111.020054,150.430336 116.620497,148.52856 C119.465155,147.562946 122.25523,146.355402 124.929489,144.981664 C129.968698,142.393019 135.022952,140.149386 140.901563,141.457909 C141.179731,141.519618 141.614302,141.347112 141.831238,141.134635 C143.023335,139.969517 144.169946,138.758116 145.545039,137.343004 L145.545039,137.343004 Z M133.888938,148.422322 C133.81441,148.292241 133.740232,148.16251 133.665704,148.03278 C133.404681,148.09484 133.126164,148.117981 132.885085,148.224921 C129.337834,149.799917 125.750696,151.293218 122.263277,152.990932 C116.836733,155.631469 111.26883,156.984871 105.432557,154.716344 C101.652975,153.247938 98.0399441,151.351772 94.3369896,149.681407 C89.7914845,147.630266 85.0654327,146.811212 80.3012422,148.613411 C76.4607785,150.066039 72.7711201,151.923988 69.0356253,153.648349 C64.088089,155.932654 58.9865983,156.774147 53.8046315,154.760873 C50.0267992,153.292817 46.417617,151.391743 42.7136128,149.726988 C40.2716853,148.629539 37.7695756,147.724232 34.6666936,147.834678 C35.2209296,148.356054 35.4816025,148.648824 35.7877619,148.881637 C41.7947847,153.454454 48.3955818,156.936485 55.3091863,159.940268 C59.4082236,161.721429 63.2654824,161.309098 67.1213416,159.684664 C70.5429793,158.242905 73.8295569,156.482429 77.2158551,154.950911 C82.3845259,152.61261 87.684058,152.276012 92.9657453,154.467753 C96.8219545,156.067994 100.535406,158.011844 104.388466,159.6205 C106.780708,160.619423 109.254476,161.569961 111.967224,160.530716 C117.571865,158.382452 122.957122,155.802222 127.987934,152.51689 C129.991091,151.207666 131.923919,149.7901 133.888938,148.422322 L133.888938,148.422322 Z M98.9269317,163.886523 C89.3257723,158.305315 77.8180269,158.511131 72.4523644,164.230133 C76.7214513,165.806531 91.7694493,165.638232 98.9269317,163.886523 L98.9269317,163.886523 Z" id="Shape"></path>
                </g>
            </g>
        </g>
    </g>
</svg>