<?xml version="1.0" encoding="UTF-8" standalone="no"?>
<svg width="333px" height="315px" viewBox="0 0 333 315" version="1.1" xmlns="http://www.w3.org/2000/svg" xmlns:xlink="http://www.w3.org/1999/xlink">
    <!-- Generator: Sketch 3.7.1 (28215) - http://www.bohemiancoding.com/sketch -->
    <title>Icon</title>
    <desc>Created with Sketch.</desc>
    <defs>
        <polygon id="path-1" points="103.832686 0.99 0.06 0.99 0.06 314.999743 207.605371 314.999743 207.605371 0.99"></polygon>
    </defs>
    <g id="Page-1" stroke="none" stroke-width="1" fill="none" fill-rule="evenodd">
        <g id="Icon">
            <g id="Group-5">
                <mask id="mask-2" fill="white">
                    <use xlink:href="#path-1"></use>
                </mask>
                <g id="Clip-2"></g>
                <path d="M207.212,136.68 C205.314,123.395 198.183,112.603 194.94,107.453 C186.337,93.791 180.38,73.79 179.757,56.974 C179.125,39.894 178.999,16.741 178.999,16.741 C178.999,16.741 180.516,16.36 180.516,15.348 C180.516,15.348 181.149,4.846 179.883,2.822 C179.119,1.598 176.208,1.302 175.203,1.178 C174.278,1.062 171.886,1 168.329,0.99 L168.329,91.959 C168.33,91.962 168.335,91.972 168.335,91.972 C168.335,91.972 167.925,98.291 172.4,104.347 C178.192,111.455 196.885,121.986 196.885,144.364 C196.885,149.63 194.396,211.965 194.396,211.965 L138.239,211.965 C138.239,211.965 135.855,149.63 135.855,144.364 C135.855,121.986 154.548,111.455 160.34,104.347 C164.296,98.995 164.744,93.445 164.898,92.225 L164.927,87.769 L164.927,0.99 C161.371,1 158.462,1.062 157.537,1.178 C156.532,1.302 153.619,1.598 152.855,2.822 C151.591,4.846 152.224,15.348 152.224,15.348 C152.224,16.36 153.741,16.741 153.741,16.741 C153.741,16.741 153.615,39.894 152.982,56.974 C152.36,73.79 146.404,93.791 137.8,107.453 C134.559,112.603 127.425,123.395 125.528,136.68 C123.605,150.143 129.324,248.144 130.083,266.744 C130.517,277.38 131.221,299.131 131.221,303.686 C131.221,308.242 132.949,312.514 138.306,314.82 C145.108,315.192 185.851,314.881 194.434,314.82 C199.789,312.514 201.52,308.242 201.52,303.686 C201.52,299.131 202.223,277.38 202.656,266.744 C203.417,248.144 209.136,150.143 207.212,136.68" id="Fill-1" fill="#221F1F" mask="url(#mask-2)"></path>
                <path d="M172.4,104.347 C172.15,104.008 171.92,103.668 171.7,103.329 L161.049,103.329 C160.826,103.668 160.59,104.008 160.34,104.347 C154.548,111.455 135.855,121.986 135.855,144.364 C135.855,146.905 136.41,162.73 136.985,178.429 L196.496,157.161 C196.729,150.57 196.885,145.682 196.885,144.364 C196.885,121.986 178.192,111.455 172.4,104.347" id="Fill-3" fill="#1D68D6" mask="url(#mask-2)"></path>
                <path d="M100.942,302.695 C87.27,295.567 74.615,286.32 63.4,275.105 C34.531,246.236 18.632,198.537 18.632,157.71 C18.632,116.884 34.531,69.184 63.4,40.315 C74.615,29.101 87.27,19.854 100.942,12.725 L100.942,1.365 C41.42,28.261 0,88.149 0,157.71 C0,227.272 41.42,287.159 100.942,314.055 L100.942,302.695" id="Fill-4" fill="#1D68D6" mask="url(#mask-2)"></path>
            </g>
            <path d="M234.428,2.592 L234.428,13.197 C247.094,20.122 258.848,28.892 269.34,39.384 C298.209,68.253 314.107,116.884 314.107,157.71 C314.107,198.537 298.209,246.236 269.34,275.105 C258.848,285.597 247.094,294.366 234.428,301.292 L234.428,312.828 C292.534,285.372 332.74,226.241 332.74,157.71 C332.74,89.18 292.534,30.048 234.428,2.592" id="Fill-6" fill="#1D68D6"></path>
        </g>
    </g>
</svg>