<?xml version="1.0" encoding="UTF-8" standalone="no"?>
<svg width="100px" height="100px" viewBox="0 0 100 100" version="1.1" xmlns="http://www.w3.org/2000/svg" xmlns:xlink="http://www.w3.org/1999/xlink">
    <!-- Generator: Sketch 3.6.1 (26313) - http://www.bohemiancoding.com/sketch -->
    <title>Press</title>
    <desc>Created with Sketch.</desc>
    <defs></defs>
    <g id="Page-1" stroke="none" stroke-width="1" fill="none" fill-rule="evenodd">
        <g id="Press" fill="#000000">
            <g id="press" transform="translate(1.000000, 22.000000)">
                <g id="noun_148111_cc-+-Page-1">
                    <g id="Page-1">
                        <g id="benefits">
                            <g id="Monetize-+-Sell-tickets,-promot-+-Group-+-Measure-engagement-+-Realtime-analytics-f-+-noun_148111_cc-+-Page-1">
                                <g id="Measure-engagement-+-Realtime-analytics-f-+-noun_148111_cc-+-Page-1">
                                    <g id="noun_148111_cc-+-Page-1">
                                        <g id="noun_148111_cc">
                                            <g id="Group">
                                                <g id="Shape">
                                                    <path d="M82.9320313,47.6826923 L82.9320313,6.02884615 C82.9320313,5.7 82.7123438,5.48076923 82.3828125,5.48076923 L16.4765625,5.48076923 C16.1470312,5.48076923 15.9273437,5.7 15.9273437,6.02884615 L15.9273437,47.6826923 C15.9273437,48.0115385 16.1470312,48.2307693 16.4765625,48.2307693 L82.3828125,48.2307693 C82.7123438,48.2307693 82.9320313,48.0115385 82.9320313,47.6826923 L82.9320313,47.6826923 L82.9320313,47.6826923 Z M81.8335937,47.1346154 L17.0257813,47.1346154 L17.0257813,6.57692307 L81.8335937,6.57692307 L81.8335937,47.1346154 L81.8335937,47.1346154 L81.8335937,47.1346154 Z"></path>
                                                    <path d="M96.6624997,51.4096154 L87.3257812,51.4096154 L87.3257812,2.74038462 C87.3257812,1.20576923 86.1175,0 84.5796875,0 L14.2796875,0 C12.741875,0 11.5335937,1.20576923 11.5335937,2.74038462 L11.5335937,51.4096154 L2.196875,51.4096154 C1.318125,51.4096154 0.54921875,52.1769231 0.54921875,53.0538462 L0.54921875,54.2596154 C0.54921875,55.575 8.67765625,57 8.7875,57 L90.0718747,57 C90.181719,57 98.310156,55.575 98.310156,54.2596154 L98.310156,53.0538462 C98.310156,52.1769231 97.54125,51.4096154 96.6624997,51.4096154 L96.6624997,51.4096154 L96.6624997,51.4096154 Z M12.6320312,2.74038462 C12.6320312,1.86346154 13.4009375,1.09615385 14.2796875,1.09615385 L84.5796875,1.09615385 C85.4584375,1.09615385 86.2273438,1.86346154 86.2273438,2.74038462 L86.2273438,51.4096154 L59.315625,51.4096154 C59.2057813,51.4096154 58.9860937,51.5192307 58.87625,51.6288462 C58.7664062,51.7384615 58.7664062,51.8480769 58.7664062,52.0673077 C58.7664062,52.0673077 58.7664062,52.0673077 58.7664062,52.1769231 C58.7664062,52.5057693 58.5467188,52.725 58.2171875,52.725 L40.6421875,52.725 C40.3126562,52.725 40.0929688,52.5057693 40.0929688,52.1769231 L40.0929688,52.0673077 C40.0929688,51.9576923 40.0929688,51.7384615 39.983125,51.6288462 C39.8732812,51.5192307 39.7634375,51.4096154 39.54375,51.4096154 L12.6320312,51.4096154 L12.6320312,2.74038462 L12.6320312,2.74038462 L12.6320312,2.74038462 Z M97.2117187,54.0403846 C96.223125,54.5884615 90.7309372,55.9038462 90.0718747,55.9038462 L8.7875,55.9038462 C8.1284375,55.9038462 2.63625,54.5884615 1.64765625,54.0403846 L1.64765625,53.0538462 C1.64765625,52.725 1.86734375,52.5057693 2.196875,52.5057693 L11.863125,52.5057693 C11.9729687,52.5057693 11.9729687,52.6153846 12.0828125,52.6153846 C12.1926562,52.6153846 12.3025,52.6153846 12.3025,52.5057693 L38.9945312,52.5057693 C39.2142188,53.1634615 39.8732812,53.7115385 40.5323437,53.7115385 L58.1073437,53.7115385 C58.87625,53.7115385 59.4254687,53.2730769 59.6451562,52.5057693 L86.4470312,52.5057693 C86.556875,52.5057693 86.556875,52.6153846 86.6667187,52.6153846 C86.7765625,52.6153846 86.8864063,52.6153846 86.8864063,52.5057693 L96.6624997,52.5057693 C96.992031,52.5057693 97.2117187,52.725 97.2117187,53.0538462 L97.2117187,54.0403846 L97.2117187,54.0403846 L97.2117187,54.0403846 Z"></path>
                                                </g>
                                            </g>
                                        </g>
                                        <path d="M57.1696424,25.2913639 C57.1696424,24.7367099 57.0960358,24.2471159 56.9488103,23.8225634 C56.8015849,23.3980171 56.6132766,23.0607716 56.3838857,22.8108331 C56.1544947,22.5609008 55.8754559,22.3571865 55.5467693,22.1996903 C55.2180889,22.0422003 54.8962556,21.9360577 54.5812632,21.8812807 C54.2662771,21.8264975 53.9307434,21.799109 53.5746745,21.799109 C53.2185994,21.799109 52.8351358,21.886416 52.4242838,22.0610239 C52.0134255,22.2356377 51.6351034,22.4547642 51.2892991,22.7183969 C50.9434947,22.9820235 50.6473382,23.2285385 50.4008294,23.4579294 C50.1543144,23.6873266 49.9488884,23.897888 49.7845451,24.0896197 C49.6612907,24.2402626 49.4935238,24.3155872 49.2812507,24.3155872 C49.0689775,24.3155872 48.9012107,24.2402626 48.7779563,24.0896197 C48.613613,23.897888 48.4081869,23.6873266 48.161672,23.4579294 C47.9151633,23.2285385 47.6190067,22.9820235 47.2732023,22.7183969 C46.9273979,22.4547642 46.5490758,22.2356377 46.1382188,22.0610239 C45.7273649,21.886416 45.3439013,21.799109 44.9878281,21.799109 C44.6317549,21.799109 44.2962243,21.8264975 43.9812362,21.8812807 C43.6662482,21.9360577 43.3444131,22.0422003 43.0157295,22.1996903 C42.6870467,22.3571865 42.4080085,22.5609008 42.1786151,22.8108331 C41.9492217,23.0607716 41.7609141,23.3980171 41.6136911,23.8225634 C41.4664687,24.2471159 41.3928572,24.7367099 41.3928572,25.2913639 C41.3928572,26.4417546 42.0331045,27.6571992 43.3135992,28.9376913 L49.2812507,34.6896474 L55.2386303,28.9479682 C56.5259758,27.6606227 57.1696424,26.4417546 57.1696424,25.2913639 L57.1696424,25.2913639 L57.1696424,25.2913639 Z M58.4843764,25.2913639 C58.4843764,26.8046768 57.7003314,28.3453782 56.1322354,29.9134681 L49.7331917,36.0762786 C49.6099311,36.1995352 49.4592882,36.2611634 49.2812507,36.2611634 C49.1032131,36.2611634 48.9525702,36.1995352 48.8293097,36.0762786 L42.4199916,29.8929267 C42.3515161,29.8381497 42.257362,29.749131 42.1375299,29.6258704 C42.0176972,29.502616 41.8276772,29.2783604 41.5674699,28.9531035 C41.3072626,28.6278405 41.0744455,28.2940247 40.8690183,27.951644 C40.6635917,27.6092631 40.4804194,27.1949875 40.3195015,26.7088109 C40.1585836,26.2226343 40.078125,25.7501519 40.078125,25.2913639 C40.078125,23.7849042 40.512945,22.6071189 41.3825859,21.7580263 C42.2522267,20.9089275 43.4539739,20.484375 44.9878281,20.484375 C45.4123769,20.484375 45.8454858,20.5579877 46.2871549,20.7052132 C46.728819,20.8524325 47.1396772,21.0510115 47.5197172,21.30095 C47.8997572,21.5508823 48.2267258,21.7854148 48.5006293,22.0045351 C48.7745327,22.2236553 49.0347357,22.456476 49.2812507,22.7029848 C49.5277656,22.456476 49.7879687,22.2236553 50.0618721,22.0045351 C50.3357755,21.7854148 50.6627442,21.5508823 51.0427842,21.30095 C51.4228241,21.0510115 51.8336824,20.8524325 52.2753465,20.7052132 C52.7170168,20.5579877 53.150122,20.484375 53.5746745,20.484375 C55.1085287,20.484375 56.3102729,20.9089275 57.1799131,21.7580263 C58.0495532,22.6071189 58.4843764,23.7849042 58.4843764,25.2913639 L58.4843764,25.2913639 L58.4843764,25.2913639 Z" id="Page-1"></path>
                                    </g>
                                </g>
                            </g>
                        </g>
                    </g>
                </g>
            </g>
        </g>
    </g>
</svg>