<?xml version="1.0" encoding="UTF-8" standalone="no"?>
<svg width="100px" height="100px" viewBox="0 0 100 100" version="1.1" xmlns="http://www.w3.org/2000/svg" xmlns:xlink="http://www.w3.org/1999/xlink">
    <!-- Generator: Sketch 3.6.1 (26313) - http://www.bohemiancoding.com/sketch -->
    <title>sync</title>
    <desc>Created with Sketch.</desc>
    <defs></defs>
    <g id="Page-1" stroke="none" stroke-width="1" fill="none" fill-rule="evenodd">
        <g id="sync" fill="#000000">
            <g id="noun_154891_cc" transform="translate(6.000000, 19.000000)">
                <g id="Group">
                    <path d="M0,0 L0,54 L89,54 L89,0 L0,0 L0,0 Z M88,53 L1,53 L1,1 L88,1 L88,53 L88,53 Z" id="Shape" stroke="#000000" stroke-width="0.3"></path>
                    <g transform="translate(26.000000, 53.000000)" id="Rectangle-path">
                        <rect transform="translate(26.554875, 5.164587) rotate(-66.796143) translate(-26.554875, -5.164587) " x="25.9438809" y="-4.61381877" width="1.22198827" height="19.5568123"></rect>
                        <rect transform="translate(9.442369, 5.165451) rotate(246.752508) translate(-9.442369, -5.165451) " x="8.83137434" y="-4.6124583" width="1.22198871" height="19.5558194"></rect>
                    </g>
                </g>
            </g>
            <g id="noun_162949_cc" transform="translate(39.000000, 36.000000)">
                <g id="Group">
                    <path d="M19.4477099,0.503625954 C19.4477099,0.232442748 19.2152672,0 18.944084,0 L6.62461832,0 C6.35343511,0 6.12099237,0.232442748 6.12099237,0.503625954 L6.12099237,15.728626 C5.46240458,15.225 4.57137405,14.8763359 3.56412214,14.8763359 C1.58835878,14.8763359 0,16.0772901 0,17.5881679 C0,19.0990458 1.58835878,20.3 3.56412214,20.3 C5.5398855,20.3 7.12824427,19.0990458 7.12824427,17.5881679 L7.12824427,4.64885496 L18.440458,4.64885496 L18.440458,15.728626 C17.7818702,15.225 16.8908397,14.8763359 15.8835878,14.8763359 C13.9078244,14.8763359 12.3194656,16.0772901 12.3194656,17.5881679 C12.3194656,19.0990458 13.9078244,20.3 15.8835878,20.3 C17.8593511,20.3 19.4477099,19.0990458 19.4477099,17.5881679 C19.4477099,17.5494275 19.4477099,0.503625954 19.4477099,0.503625954 L19.4477099,0.503625954 Z M3.56412214,19.2927481 C2.16946565,19.2927481 1.00725191,18.5179389 1.00725191,17.5881679 C1.00725191,16.6583969 2.16946565,15.8835878 3.56412214,15.8835878 C4.95877863,15.8835878 6.12099237,16.6583969 6.12099237,17.5881679 C6.12099237,18.5179389 4.95877863,19.2927481 3.56412214,19.2927481 L3.56412214,19.2927481 Z M7.12824427,3.64160305 L7.12824427,0.96851145 L18.440458,0.96851145 L18.440458,3.64160305 L7.12824427,3.64160305 L7.12824427,3.64160305 Z M15.8835878,19.2927481 C14.4889313,19.2927481 13.3267176,18.5179389 13.3267176,17.5881679 C13.3267176,16.6583969 14.4889313,15.8835878 15.8835878,15.8835878 C17.2782443,15.8835878 18.440458,16.6583969 18.440458,17.5881679 C18.440458,18.5179389 17.2782443,19.2927481 15.8835878,19.2927481 L15.8835878,19.2927481 Z" id="Shape"></path>
                </g>
            </g>
        </g>
    </g>
</svg>